<svg xmlns="http://www.w3.org/2000/svg" xmlns:xlink="http://www.w3.org/1999/xlink" width="500" zoomAndPan="magnify" viewBox="0 0 375 374.999991" height="500" preserveAspectRatio="xMidYMid meet" version="1.0"><defs><clipPath id="7dba44efde"><path d="M 65.652344 82.710938 L 309.402344 82.710938 L 309.402344 291 L 65.652344 291 Z M 65.652344 82.710938 " clip-rule="nonzero"/></clipPath></defs><path fill="#ffffff" d="M 208.976562 168.621094 C 208.976562 169.324219 208.941406 170.027344 208.871094 170.726562 C 208.804688 171.425781 208.699219 172.121094 208.5625 172.8125 C 208.425781 173.5 208.253906 174.183594 208.050781 174.855469 C 207.847656 175.53125 207.609375 176.191406 207.339844 176.839844 C 207.070312 177.492188 206.769531 178.125 206.441406 178.746094 C 206.109375 179.367188 205.746094 179.96875 205.355469 180.554688 C 204.964844 181.140625 204.546875 181.703125 204.101562 182.246094 C 203.652344 182.789062 203.183594 183.3125 202.683594 183.808594 C 202.1875 184.304688 201.667969 184.777344 201.125 185.222656 C 200.578125 185.671875 200.015625 186.089844 199.429688 186.480469 C 198.84375 186.871094 198.242188 187.230469 197.621094 187.5625 C 197.003906 187.894531 196.367188 188.195312 195.71875 188.464844 C 195.066406 188.734375 194.40625 188.96875 193.734375 189.175781 C 193.058594 189.378906 192.378906 189.550781 191.6875 189.6875 C 190.996094 189.824219 190.304688 189.925781 189.601562 189.996094 C 188.902344 190.066406 188.199219 190.097656 187.496094 190.097656 C 186.792969 190.097656 186.09375 190.066406 185.390625 189.996094 C 184.691406 189.925781 183.996094 189.824219 183.308594 189.6875 C 182.617188 189.550781 181.9375 189.378906 181.261719 189.175781 C 180.589844 188.96875 179.929688 188.734375 179.277344 188.464844 C 178.628906 188.195312 177.992188 187.894531 177.371094 187.5625 C 176.753906 187.230469 176.148438 186.871094 175.566406 186.480469 C 174.980469 186.089844 174.414062 185.671875 173.871094 185.222656 C 173.328125 184.777344 172.808594 184.304688 172.308594 183.808594 C 171.8125 183.3125 171.339844 182.789062 170.894531 182.246094 C 170.449219 181.703125 170.03125 181.140625 169.640625 180.554688 C 169.25 179.96875 168.886719 179.367188 168.554688 178.746094 C 168.222656 178.125 167.921875 177.492188 167.65625 176.839844 C 167.386719 176.191406 167.148438 175.53125 166.945312 174.855469 C 166.742188 174.183594 166.570312 173.5 166.433594 172.8125 C 166.296875 172.121094 166.191406 171.425781 166.125 170.726562 C 166.054688 170.027344 166.019531 169.324219 166.019531 168.621094 C 166.019531 167.917969 166.054688 167.214844 166.125 166.515625 C 166.191406 165.816406 166.296875 165.121094 166.433594 164.429688 C 166.570312 163.742188 166.742188 163.058594 166.945312 162.386719 C 167.148438 161.714844 167.386719 161.050781 167.65625 160.402344 C 167.921875 159.753906 168.222656 159.117188 168.554688 158.496094 C 168.886719 157.875 169.25 157.273438 169.640625 156.6875 C 170.03125 156.105469 170.449219 155.539062 170.894531 154.996094 C 171.339844 154.453125 171.8125 153.933594 172.308594 153.433594 C 172.808594 152.9375 173.328125 152.464844 173.871094 152.019531 C 174.414062 151.574219 174.980469 151.152344 175.566406 150.761719 C 176.148438 150.371094 176.753906 150.011719 177.371094 149.679688 C 177.992188 149.347656 178.628906 149.046875 179.277344 148.777344 C 179.929688 148.507812 180.589844 148.273438 181.261719 148.066406 C 181.9375 147.863281 182.617188 147.695312 183.308594 147.554688 C 183.996094 147.417969 184.691406 147.316406 185.390625 147.246094 C 186.09375 147.179688 186.792969 147.144531 187.496094 147.144531 C 188.199219 147.144531 188.902344 147.179688 189.601562 147.246094 C 190.304688 147.316406 190.996094 147.417969 191.6875 147.554688 C 192.378906 147.695312 193.058594 147.863281 193.734375 148.066406 C 194.40625 148.273438 195.066406 148.507812 195.71875 148.777344 C 196.367188 149.046875 197.003906 149.347656 197.621094 149.679688 C 198.242188 150.011719 198.84375 150.371094 199.429688 150.761719 C 200.015625 151.152344 200.578125 151.574219 201.125 152.019531 C 201.667969 152.464844 202.1875 152.9375 202.683594 153.433594 C 203.183594 153.933594 203.652344 154.453125 204.101562 154.996094 C 204.546875 155.539062 204.964844 156.105469 205.355469 156.6875 C 205.746094 157.273438 206.109375 157.875 206.441406 158.496094 C 206.769531 159.117188 207.070312 159.753906 207.339844 160.402344 C 207.609375 161.050781 207.847656 161.714844 208.050781 162.386719 C 208.253906 163.058594 208.425781 163.742188 208.5625 164.429688 C 208.699219 165.121094 208.804688 165.816406 208.871094 166.515625 C 208.941406 167.214844 208.976562 167.917969 208.976562 168.621094 Z M 208.976562 168.621094 " fill-opacity="1" fill-rule="nonzero"/><path fill="#ffffff" d="M 266.25 168.621094 C 266.25 169.324219 266.214844 170.027344 266.148438 170.726562 C 266.078125 171.425781 265.976562 172.121094 265.835938 172.8125 C 265.699219 173.5 265.53125 174.183594 265.324219 174.855469 C 265.121094 175.53125 264.886719 176.191406 264.617188 176.839844 C 264.347656 177.492188 264.046875 178.125 263.714844 178.746094 C 263.382812 179.367188 263.023438 179.96875 262.632812 180.554688 C 262.238281 181.140625 261.820312 181.703125 261.375 182.246094 C 260.929688 182.789062 260.457031 183.3125 259.960938 183.808594 C 259.460938 184.304688 258.941406 184.777344 258.398438 185.222656 C 257.855469 185.671875 257.289062 186.089844 256.707031 186.480469 C 256.121094 186.871094 255.515625 187.230469 254.898438 187.5625 C 254.277344 187.894531 253.640625 188.195312 252.992188 188.464844 C 252.34375 188.734375 251.679688 188.96875 251.007812 189.175781 C 250.335938 189.378906 249.652344 189.550781 248.960938 189.6875 C 248.273438 189.824219 247.578125 189.925781 246.878906 189.996094 C 246.175781 190.066406 245.476562 190.097656 244.773438 190.097656 C 244.070312 190.097656 243.367188 190.066406 242.667969 189.996094 C 241.96875 189.925781 241.273438 189.824219 240.582031 189.6875 C 239.890625 189.550781 239.210938 189.378906 238.539062 189.175781 C 237.863281 188.96875 237.203125 188.734375 236.554688 188.464844 C 235.902344 188.195312 235.269531 187.894531 234.648438 187.5625 C 234.027344 187.230469 233.425781 186.871094 232.839844 186.480469 C 232.253906 186.089844 231.691406 185.671875 231.148438 185.222656 C 230.601562 184.777344 230.082031 184.304688 229.585938 183.808594 C 229.085938 183.3125 228.617188 182.789062 228.167969 182.246094 C 227.722656 181.703125 227.304688 181.140625 226.914062 180.554688 C 226.523438 179.96875 226.164062 179.367188 225.832031 178.746094 C 225.5 178.125 225.199219 177.492188 224.929688 176.839844 C 224.660156 176.191406 224.421875 175.53125 224.21875 174.855469 C 224.015625 174.183594 223.84375 173.5 223.707031 172.8125 C 223.570312 172.121094 223.46875 171.425781 223.398438 170.726562 C 223.328125 170.027344 223.292969 169.324219 223.292969 168.621094 C 223.292969 167.917969 223.328125 167.214844 223.398438 166.515625 C 223.46875 165.816406 223.570312 165.121094 223.707031 164.429688 C 223.84375 163.742188 224.015625 163.058594 224.21875 162.386719 C 224.421875 161.714844 224.660156 161.050781 224.929688 160.402344 C 225.199219 159.753906 225.5 159.117188 225.832031 158.496094 C 226.164062 157.875 226.523438 157.273438 226.914062 156.6875 C 227.304688 156.105469 227.722656 155.539062 228.167969 154.996094 C 228.617188 154.453125 229.085938 153.933594 229.585938 153.433594 C 230.082031 152.9375 230.601562 152.464844 231.148438 152.019531 C 231.691406 151.574219 232.253906 151.152344 232.839844 150.761719 C 233.425781 150.371094 234.027344 150.011719 234.648438 149.679688 C 235.269531 149.347656 235.902344 149.046875 236.554688 148.777344 C 237.203125 148.507812 237.863281 148.273438 238.539062 148.066406 C 239.210938 147.863281 239.890625 147.695312 240.582031 147.554688 C 241.273438 147.417969 241.96875 147.316406 242.667969 147.246094 C 243.367188 147.179688 244.070312 147.144531 244.773438 147.144531 C 245.476562 147.144531 246.175781 147.179688 246.878906 147.246094 C 247.578125 147.316406 248.273438 147.417969 248.960938 147.554688 C 249.652344 147.695312 250.335938 147.863281 251.007812 148.066406 C 251.679688 148.273438 252.34375 148.507812 252.992188 148.777344 C 253.640625 149.046875 254.277344 149.347656 254.898438 149.679688 C 255.519531 150.011719 256.121094 150.371094 256.707031 150.761719 C 257.289062 151.152344 257.855469 151.574219 258.398438 152.019531 C 258.941406 152.464844 259.460938 152.9375 259.960938 153.433594 C 260.457031 153.933594 260.929688 154.453125 261.375 154.996094 C 261.820312 155.539062 262.238281 156.105469 262.632812 156.6875 C 263.023438 157.273438 263.382812 157.875 263.714844 158.496094 C 264.046875 159.117188 264.347656 159.753906 264.617188 160.402344 C 264.886719 161.050781 265.121094 161.714844 265.324219 162.386719 C 265.53125 163.058594 265.699219 163.742188 265.835938 164.429688 C 265.976562 165.121094 266.078125 165.816406 266.148438 166.515625 C 266.214844 167.214844 266.25 167.917969 266.25 168.621094 Z M 266.25 168.621094 " fill-opacity="1" fill-rule="nonzero"/><path fill="#ffffff" d="M 151.699219 168.621094 C 151.699219 169.324219 151.667969 170.027344 151.597656 170.726562 C 151.527344 171.425781 151.425781 172.121094 151.289062 172.8125 C 151.152344 173.5 150.980469 174.183594 150.777344 174.855469 C 150.570312 175.53125 150.335938 176.191406 150.066406 176.839844 C 149.796875 177.492188 149.496094 178.125 149.164062 178.746094 C 148.832031 179.367188 148.472656 179.96875 148.082031 180.554688 C 147.691406 181.140625 147.273438 181.703125 146.824219 182.246094 C 146.378906 182.789062 145.90625 183.3125 145.410156 183.808594 C 144.914062 184.304688 144.390625 184.777344 143.847656 185.222656 C 143.304688 185.671875 142.742188 186.089844 142.15625 186.480469 C 141.570312 186.871094 140.96875 187.230469 140.347656 187.5625 C 139.726562 187.894531 139.09375 188.195312 138.441406 188.464844 C 137.792969 188.734375 137.128906 188.96875 136.457031 189.175781 C 135.785156 189.378906 135.101562 189.550781 134.414062 189.6875 C 133.722656 189.824219 133.027344 189.925781 132.328125 189.996094 C 131.628906 190.066406 130.925781 190.097656 130.222656 190.097656 C 129.519531 190.097656 128.816406 190.066406 128.117188 189.996094 C 127.417969 189.925781 126.722656 189.824219 126.03125 189.6875 C 125.34375 189.550781 124.660156 189.378906 123.988281 189.175781 C 123.316406 188.96875 122.652344 188.734375 122.003906 188.464844 C 121.355469 188.195312 120.71875 187.894531 120.097656 187.5625 C 119.476562 187.230469 118.875 186.871094 118.289062 186.480469 C 117.707031 186.089844 117.140625 185.671875 116.597656 185.222656 C 116.054688 184.777344 115.53125 184.304688 115.035156 183.808594 C 114.539062 183.3125 114.066406 182.789062 113.621094 182.246094 C 113.175781 181.703125 112.753906 181.140625 112.363281 180.554688 C 111.972656 179.96875 111.613281 179.367188 111.28125 178.746094 C 110.949219 178.125 110.648438 177.492188 110.378906 176.839844 C 110.109375 176.191406 109.875 175.53125 109.667969 174.855469 C 109.464844 174.183594 109.292969 173.5 109.15625 172.8125 C 109.019531 172.121094 108.917969 171.425781 108.847656 170.726562 C 108.78125 170.027344 108.746094 169.324219 108.746094 168.621094 C 108.746094 167.917969 108.78125 167.214844 108.847656 166.515625 C 108.917969 165.816406 109.019531 165.121094 109.15625 164.429688 C 109.292969 163.742188 109.464844 163.058594 109.667969 162.386719 C 109.875 161.714844 110.109375 161.050781 110.378906 160.402344 C 110.648438 159.753906 110.949219 159.117188 111.28125 158.496094 C 111.613281 157.875 111.972656 157.273438 112.363281 156.6875 C 112.753906 156.105469 113.175781 155.539062 113.621094 154.996094 C 114.066406 154.453125 114.539062 153.933594 115.035156 153.433594 C 115.53125 152.9375 116.054688 152.464844 116.597656 152.019531 C 117.140625 151.574219 117.707031 151.152344 118.289062 150.761719 C 118.875 150.371094 119.476562 150.011719 120.097656 149.679688 C 120.71875 149.347656 121.355469 149.046875 122.003906 148.777344 C 122.652344 148.507812 123.316406 148.273438 123.988281 148.066406 C 124.660156 147.863281 125.34375 147.695312 126.03125 147.554688 C 126.722656 147.417969 127.417969 147.316406 128.117188 147.246094 C 128.816406 147.179688 129.519531 147.144531 130.222656 147.144531 C 130.925781 147.144531 131.628906 147.179688 132.328125 147.246094 C 133.027344 147.316406 133.722656 147.417969 134.414062 147.554688 C 135.101562 147.695312 135.785156 147.863281 136.457031 148.066406 C 137.128906 148.273438 137.792969 148.507812 138.441406 148.777344 C 139.09375 149.046875 139.726562 149.347656 140.347656 149.679688 C 140.96875 150.011719 141.570312 150.371094 142.15625 150.761719 C 142.742188 151.152344 143.304688 151.574219 143.847656 152.019531 C 144.390625 152.464844 144.914062 152.9375 145.410156 153.433594 C 145.90625 153.933594 146.378906 154.453125 146.824219 154.996094 C 147.273438 155.539062 147.691406 156.105469 148.082031 156.6875 C 148.472656 157.273438 148.832031 157.875 149.164062 158.496094 C 149.496094 159.117188 149.796875 159.753906 150.066406 160.402344 C 150.335938 161.050781 150.570312 161.714844 150.777344 162.386719 C 150.980469 163.058594 151.152344 163.742188 151.289062 164.429688 C 151.425781 165.121094 151.527344 165.816406 151.597656 166.515625 C 151.667969 167.214844 151.699219 167.917969 151.699219 168.621094 Z M 151.699219 168.621094 " fill-opacity="1" fill-rule="nonzero"/><g clip-path="url(#7dba44efde)"><path fill="#ffffff" d="M 269.589844 82.710938 L 105.402344 82.710938 C 83.558594 82.710938 65.789062 100.480469 65.789062 122.324219 L 65.789062 214.917969 C 65.789062 236.761719 83.558594 254.535156 105.402344 254.535156 L 130.222656 254.535156 L 130.222656 283.171875 C 130.222656 288.917969 136.644531 292.269531 141.351562 289.128906 L 193.246094 254.535156 L 269.589844 254.535156 C 291.4375 254.535156 309.207031 236.761719 309.207031 214.917969 L 309.207031 122.324219 C 309.207031 100.480469 291.4375 82.710938 269.589844 82.710938 Z M 294.886719 214.917969 C 294.886719 228.867188 283.539062 240.214844 269.589844 240.214844 L 191.078125 240.214844 C 189.664062 240.214844 188.28125 240.632812 187.105469 241.417969 L 144.542969 269.792969 L 144.542969 247.375 C 144.542969 243.421875 141.335938 240.214844 137.382812 240.214844 L 105.402344 240.214844 C 91.453125 240.214844 80.109375 228.867188 80.109375 214.917969 L 80.109375 122.324219 C 80.109375 108.375 91.453125 97.027344 105.402344 97.027344 L 269.589844 97.027344 C 283.539062 97.027344 294.886719 108.375 294.886719 122.324219 Z M 294.886719 214.917969 " fill-opacity="1" fill-rule="nonzero"/></g></svg>