<svg xmlns="http://www.w3.org/2000/svg" xmlns:xlink="http://www.w3.org/1999/xlink" width="500" zoomAndPan="magnify" viewBox="0 0 375 374.999991" height="500" preserveAspectRatio="xMidYMid meet" version="1.0"><defs><clipPath id="4d1ff03860"><path d="M 78.078125 78.078125 L 296.921875 78.078125 L 296.921875 296.921875 L 78.078125 296.921875 Z M 78.078125 78.078125 " clip-rule="nonzero"/></clipPath><clipPath id="69dd366ac9"><path d="M 187.5 78.078125 C 127.066406 78.078125 78.078125 127.066406 78.078125 187.5 C 78.078125 247.933594 127.066406 296.921875 187.5 296.921875 C 247.933594 296.921875 296.921875 247.933594 296.921875 187.5 C 296.921875 127.066406 247.933594 78.078125 187.5 78.078125 Z M 187.5 78.078125 " clip-rule="nonzero"/></clipPath><clipPath id="5d060db5df"><path d="M 121.59375 138 L 253.59375 138 L 253.59375 237 L 121.59375 237 Z M 121.59375 138 " clip-rule="nonzero"/></clipPath><clipPath id="2cb1e7855a"><path d="M 121.59375 220 L 253.59375 220 L 253.59375 226 L 121.59375 226 Z M 121.59375 220 " clip-rule="nonzero"/></clipPath><clipPath id="da0a9a5d2c"><path d="M 160 247 L 215 247 L 215 253.59375 L 160 253.59375 Z M 160 247 " clip-rule="nonzero"/></clipPath><clipPath id="da3a55efb6"><path d="M 165 231 L 177 231 L 177 253.59375 L 165 253.59375 Z M 165 231 " clip-rule="nonzero"/></clipPath><clipPath id="9c1d690afe"><path d="M 198 231 L 210 231 L 210 253.59375 L 198 253.59375 Z M 198 231 " clip-rule="nonzero"/></clipPath></defs><g clip-path="url(#4d1ff03860)"><g clip-path="url(#69dd366ac9)"><path fill="#5be9b9" d="M 78.078125 78.078125 L 296.921875 78.078125 L 296.921875 296.921875 L 78.078125 296.921875 Z M 78.078125 78.078125 " fill-opacity="1" fill-rule="nonzero"/></g></g><g clip-path="url(#5d060db5df)"><path fill="#141c3a" d="M 247.738281 231.125 L 127.253906 231.125 L 127.253906 143.5 L 197.523438 143.5 C 199.035156 143.5 200.257812 142.273438 200.257812 140.761719 C 200.257812 139.25 199.035156 138.023438 197.523438 138.023438 L 124.515625 138.023438 C 123.003906 138.023438 121.777344 139.25 121.777344 140.761719 L 121.777344 233.863281 C 121.777344 235.375 123.003906 236.601562 124.515625 236.601562 L 250.476562 236.601562 C 251.988281 236.601562 253.214844 235.375 253.214844 233.863281 L 253.214844 140.761719 C 253.214844 139.25 251.988281 138.023438 250.476562 138.023438 C 248.964844 138.023438 247.738281 139.25 247.738281 140.761719 Z M 247.738281 231.125 " fill-opacity="1" fill-rule="nonzero"/></g><g clip-path="url(#2cb1e7855a)"><path fill="#141c3a" d="M 124.515625 225.648438 L 250.476562 225.648438 C 251.988281 225.648438 253.214844 224.421875 253.214844 222.910156 C 253.214844 221.398438 251.988281 220.171875 250.476562 220.171875 L 124.515625 220.171875 C 123.003906 220.171875 121.777344 221.398438 121.777344 222.910156 C 121.777344 224.421875 123.003906 225.648438 124.515625 225.648438 Z M 124.515625 225.648438 " fill-opacity="1" fill-rule="nonzero"/></g><g clip-path="url(#da0a9a5d2c)"><path fill="#141c3a" d="M 162.851562 253.03125 L 212.140625 253.03125 C 213.652344 253.03125 214.878906 251.804688 214.878906 250.292969 C 214.878906 248.78125 213.652344 247.554688 212.140625 247.554688 L 162.851562 247.554688 C 161.339844 247.554688 160.113281 248.78125 160.113281 250.292969 C 160.113281 251.804688 161.339844 253.03125 162.851562 253.03125 Z M 162.851562 253.03125 " fill-opacity="1" fill-rule="nonzero"/></g><g clip-path="url(#da3a55efb6)"><path fill="#141c3a" d="M 170.921875 251.164062 L 176.398438 234.734375 C 176.886719 233.292969 176.101562 231.738281 174.675781 231.265625 C 173.234375 230.78125 171.679688 231.566406 171.207031 232.992188 L 165.730469 249.421875 C 165.246094 250.863281 166.03125 252.417969 167.457031 252.886719 C 168.898438 253.375 170.453125 252.589844 170.921875 251.164062 Z M 170.921875 251.164062 " fill-opacity="1" fill-rule="nonzero"/></g><g clip-path="url(#9c1d690afe)"><path fill="#141c3a" d="M 204.066406 251.164062 L 198.589844 234.734375 C 198.105469 233.292969 198.890625 231.738281 200.316406 231.265625 C 201.757812 230.78125 203.3125 231.566406 203.78125 232.992188 L 209.257812 249.421875 C 209.742188 250.863281 208.960938 252.417969 207.53125 252.886719 C 206.09375 253.375 204.539062 252.589844 204.066406 251.164062 Z M 204.066406 251.164062 " fill-opacity="1" fill-rule="nonzero"/></g><path fill="#141c3a" d="M 238.867188 146.167969 L 182.832031 195.371094 C 182.304688 195.828125 179.808594 192.304688 177.027344 189.566406 C 174.003906 186.585938 170.722656 184.332031 171.222656 183.761719 L 220.425781 127.726562 C 225.503906 122.007812 234.046875 121.753906 239.4375 127.15625 C 244.855469 132.5625 244.585938 141.089844 238.867188 146.167969 Z M 235.570312 131.023438 C 232.390625 127.855469 227.515625 128 224.53125 131.351562 L 177.027344 185.445312 L 181.148438 189.566406 L 235.230469 142.074219 C 238.59375 139.078125 238.753906 134.203125 235.570312 131.023438 Z M 235.570312 131.023438 " fill-opacity="1" fill-rule="nonzero"/><path fill="#141c3a" d="M 147.71875 208.691406 C 146.078125 207.363281 146.492188 204.753906 148.460938 204 C 151.984375 202.660156 153.824219 200.164062 156.304688 194.429688 C 158.53125 189.296875 159.144531 188.097656 160.882812 186.34375 C 166.230469 180.996094 174.902344 180.996094 180.25 186.34375 C 185.597656 191.691406 185.597656 200.363281 180.25 205.710938 C 173.046875 212.898438 157.105469 216.222656 147.71875 208.691406 Z M 176.371094 201.832031 C 179.582031 198.621094 179.582031 193.429688 176.371094 190.222656 C 173.164062 187.011719 167.972656 187.011719 164.761719 190.222656 C 163.734375 191.25 163.195312 192.289062 161.339844 196.597656 C 159.328125 201.246094 157.515625 204.339844 154.964844 206.496094 C 162.066406 208.992188 171.851562 206.367188 176.371094 201.832031 Z M 176.371094 201.832031 " fill-opacity="1" fill-rule="nonzero"/><path fill="#141c3a" d="M 182.617188 176.058594 L 190.519531 183.917969 C 191.589844 184.988281 193.3125 184.988281 194.382812 183.917969 C 195.453125 182.847656 195.453125 181.109375 194.382812 180.039062 L 186.484375 172.179688 C 185.414062 171.113281 183.671875 171.125 182.605469 172.195312 C 181.535156 173.265625 181.546875 174.992188 182.617188 176.058594 Z M 182.617188 176.058594 " fill-opacity="1" fill-rule="nonzero"/></svg>