<svg xmlns="http://www.w3.org/2000/svg" xmlns:xlink="http://www.w3.org/1999/xlink" width="500" zoomAndPan="magnify" viewBox="0 0 375 374.999991" height="500" preserveAspectRatio="xMidYMid meet" version="1.0"><defs><clipPath id="75d5341e66"><path d="M 81 81 L 294 81 L 294 293.898438 L 81 293.898438 Z M 81 81 " clip-rule="nonzero"/></clipPath></defs><g clip-path="url(#75d5341e66)"><path fill="#6e07f3" d="M 156.617188 266.722656 C 166.117188 252.992188 179.867188 238.1875 196.757812 224.457031 C 205.222656 218.117188 214.742188 211.78125 224.238281 206.492188 C 230.578125 219.171875 236.9375 235.027344 242.203125 250.886719 C 227.417969 264.617188 207.328125 272.007812 187.257812 272.007812 C 176.6875 272.007812 166.117188 269.902344 156.617188 266.722656 Z M 105.886719 211.78125 C 127.03125 203.332031 150.277344 187.476562 172.457031 169.511719 C 177.742188 166.335938 181.972656 162.121094 186.207031 157.886719 C 196.757812 166.335938 205.222656 176.90625 213.667969 188.53125 C 204.167969 193.816406 193.597656 200.15625 184.097656 207.546875 C 165.0625 222.351562 149.226562 239.261719 137.601562 256.171875 C 133.367188 252.992188 130.191406 250.886719 127.03125 246.652344 C 117.511719 237.136719 110.121094 224.457031 105.886719 211.78125 Z M 123.851562 131.460938 C 140.761719 133.585938 155.5625 137.800781 168.242188 145.210938 C 166.117188 148.371094 162.957031 150.496094 159.777344 153.65625 C 140.761719 169.511719 120.691406 182.191406 102.726562 190.636719 C 101.65625 169.511719 109.066406 148.371094 123.851562 131.460938 Z M 205.222656 105.050781 C 199.9375 113.496094 192.542969 121.960938 184.082031 130.40625 C 172.457031 123.015625 159.777344 117.730469 146.046875 113.496094 C 158.722656 107.15625 172.457031 102.925781 187.257812 102.925781 C 193.597656 102.925781 198.882812 103.996094 205.222656 105.050781 Z M 269.683594 167.386719 C 258.058594 169.511719 245.382812 173.746094 232.683594 179.011719 C 223.1875 165.28125 212.613281 152.601562 202.0625 143.085938 C 211.5625 132.53125 220.007812 121.960938 226.347656 112.445312 C 233.757812 116.675781 241.148438 121.960938 247.488281 128.300781 C 258.058594 138.871094 265.453125 152.601562 269.683594 167.40625 Z M 243.273438 196.976562 C 252.773438 192.761719 262.292969 189.582031 271.792969 188.53125 C 271.792969 204.386719 266.523438 220.226562 259.113281 232.921875 C 253.828125 220.226562 248.542969 208.601562 243.273438 196.976562 Z M 262.292969 112.445312 C 242.203125 92.375 215.792969 81.800781 187.257812 81.800781 C 158.722656 81.800781 132.316406 92.375 112.226562 112.445312 C 71.011719 153.65625 71.011719 221.296875 112.226562 262.511719 C 132.316406 282.582031 158.722656 293.152344 187.257812 293.152344 C 215.792969 293.152344 242.203125 282.582031 262.292969 262.511719 C 303.503906 221.296875 303.503906 153.65625 262.292969 112.445312 " fill-opacity="1" fill-rule="nonzero"/></g></svg>