<svg xmlns="http://www.w3.org/2000/svg" xmlns:xlink="http://www.w3.org/1999/xlink" width="500" zoomAndPan="magnify" viewBox="0 0 375 374.999991" height="500" preserveAspectRatio="xMidYMid meet" version="1.0"><defs><clipPath id="f49eb05ab1"><path d="M 112.5 112.5 L 262.5 112.5 L 262.5 262.5 L 112.5 262.5 Z M 112.5 112.5 " clip-rule="nonzero"/></clipPath></defs><g clip-path="url(#f49eb05ab1)"><path fill="#000000" d="M 187.5 112.5 C 146.136719 112.5 112.5 146.136719 112.5 187.5 C 112.5 228.863281 146.136719 262.5 187.5 262.5 C 228.863281 262.5 262.5 228.863281 262.5 187.5 C 262.5 146.136719 228.863281 112.5 187.5 112.5 Z M 187.5 257.238281 C 148.992188 257.238281 117.761719 226.007812 117.761719 187.5 C 117.761719 148.992188 148.992188 117.761719 187.5 117.761719 C 226.007812 117.761719 257.238281 148.992188 257.238281 187.5 C 257.238281 226.007812 226.007812 257.238281 187.5 257.238281 Z M 187.5 257.238281 " fill-opacity="1" fill-rule="nonzero"/></g><path fill="#000000" d="M 225.261719 163.339844 L 199.871094 187.5 L 225.261719 211.660156 C 225.941406 210.730469 226.375 209.699219 226.566406 208.5625 L 226.566406 166.4375 C 226.375 165.300781 225.941406 164.269531 225.261719 163.339844 Z M 225.261719 163.339844 " fill-opacity="1" fill-rule="nonzero"/><path fill="#000000" d="M 187.5 199.273438 L 177.050781 189.328125 L 151.679688 213.46875 C 152.875 214.257812 154.1875 214.648438 155.617188 214.644531 L 219.382812 214.644531 C 220.8125 214.648438 222.125 214.257812 223.320312 213.46875 L 197.949219 189.328125 Z M 187.5 199.273438 " fill-opacity="1" fill-rule="nonzero"/><path fill="#000000" d="M 149.738281 163.339844 C 149.058594 164.269531 148.625 165.300781 148.433594 166.4375 L 148.433594 208.5625 C 148.625 209.699219 149.058594 210.730469 149.738281 211.660156 L 175.128906 187.5 Z M 149.738281 163.339844 " fill-opacity="1" fill-rule="nonzero"/><path fill="#000000" d="M 177.050781 185.671875 L 187.5 195.632812 L 223.320312 161.53125 C 222.125 160.742188 220.8125 160.351562 219.382812 160.355469 L 155.617188 160.355469 C 154.1875 160.351562 152.875 160.742188 151.679688 161.53125 Z M 177.050781 185.671875 " fill-opacity="1" fill-rule="nonzero"/></svg>