<svg xmlns="http://www.w3.org/2000/svg" xmlns:xlink="http://www.w3.org/1999/xlink" width="500" zoomAndPan="magnify" viewBox="0 0 375 374.999991" height="500" preserveAspectRatio="xMidYMid meet" version="1.0"><defs><clipPath id="f4cebd1943"><path d="M 78.078125 78.078125 L 296.921875 78.078125 L 296.921875 296.921875 L 78.078125 296.921875 Z M 78.078125 78.078125 " clip-rule="nonzero"/></clipPath><clipPath id="63ee5ae945"><path d="M 187.5 78.078125 C 127.066406 78.078125 78.078125 127.066406 78.078125 187.5 C 78.078125 247.933594 127.066406 296.921875 187.5 296.921875 C 247.933594 296.921875 296.921875 247.933594 296.921875 187.5 C 296.921875 127.066406 247.933594 78.078125 187.5 78.078125 Z M 187.5 78.078125 " clip-rule="nonzero"/></clipPath><clipPath id="8db1092e3b"><path d="M 122.402344 200 L 252.902344 200 L 252.902344 215 L 122.402344 215 Z M 122.402344 200 " clip-rule="nonzero"/></clipPath><clipPath id="f76823eb85"><path d="M 159 234 L 216 234 L 216 244.457031 L 159 244.457031 Z M 159 234 " clip-rule="nonzero"/></clipPath><clipPath id="ee1c47d7e3"><path d="M 122.402344 130.457031 L 252.902344 130.457031 L 252.902344 197 L 122.402344 197 Z M 122.402344 130.457031 " clip-rule="nonzero"/></clipPath></defs><g clip-path="url(#f4cebd1943)"><g clip-path="url(#63ee5ae945)"><path fill="#5be9b9" d="M 78.078125 78.078125 L 296.921875 78.078125 L 296.921875 296.921875 L 78.078125 296.921875 Z M 78.078125 78.078125 " fill-opacity="1" fill-rule="nonzero"/></g></g><g clip-path="url(#8db1092e3b)"><path fill="#141c3a" d="M 122.4375 209.933594 C 122.4375 210.226562 122.464844 210.515625 122.523438 210.800781 C 122.582031 211.089844 122.664062 211.367188 122.777344 211.636719 C 122.886719 211.90625 123.027344 212.160156 123.1875 212.40625 C 123.351562 212.648438 123.535156 212.871094 123.742188 213.078125 C 123.945312 213.285156 124.171875 213.46875 124.414062 213.632812 C 124.65625 213.792969 124.914062 213.929688 125.183594 214.042969 C 125.453125 214.15625 125.730469 214.238281 126.015625 214.296875 C 126.300781 214.351562 126.589844 214.382812 126.882812 214.382812 L 248.105469 214.382812 C 248.398438 214.382812 248.6875 214.351562 248.972656 214.296875 C 249.261719 214.238281 249.539062 214.15625 249.808594 214.042969 C 250.078125 213.929688 250.332031 213.792969 250.574219 213.632812 C 250.820312 213.46875 251.042969 213.285156 251.25 213.078125 C 251.457031 212.871094 251.640625 212.648438 251.800781 212.40625 C 251.964844 212.160156 252.101562 211.90625 252.214844 211.636719 C 252.324219 211.367188 252.410156 211.089844 252.464844 210.800781 C 252.523438 210.515625 252.550781 210.226562 252.550781 209.933594 L 252.550781 200.65625 L 122.4375 200.65625 Z M 162.03125 206.4375 C 162.105469 206.261719 162.199219 206.097656 162.316406 205.949219 C 162.429688 205.796875 162.5625 205.660156 162.710938 205.542969 C 162.859375 205.421875 163.019531 205.324219 163.191406 205.242188 C 163.363281 205.164062 163.542969 205.105469 163.726562 205.070312 C 163.914062 205.03125 164.101562 205.019531 164.292969 205.027344 C 164.480469 205.035156 164.667969 205.066406 164.847656 205.121094 C 165.03125 205.175781 165.203125 205.253906 165.367188 205.347656 C 165.53125 205.445312 165.679688 205.558594 165.816406 205.691406 C 166.042969 205.902344 166.214844 206.148438 166.328125 206.4375 C 166.449219 206.71875 166.507812 207.011719 166.515625 207.320312 C 166.515625 207.96875 166.28125 208.515625 165.816406 208.96875 C 165.371094 209.421875 164.828125 209.648438 164.191406 209.640625 C 163.546875 209.648438 162.996094 209.425781 162.539062 208.96875 C 162.078125 208.515625 161.855469 207.964844 161.867188 207.320312 C 161.863281 207.015625 161.917969 206.71875 162.03125 206.4375 Z M 146.507812 205.691406 C 146.71875 205.464844 146.964844 205.296875 147.253906 205.179688 C 147.6875 204.992188 148.136719 204.945312 148.601562 205.042969 C 148.738281 205.089844 148.902344 205.136719 149.042969 205.179688 C 149.179688 205.226562 149.296875 205.320312 149.4375 205.390625 C 149.5625 205.480469 149.679688 205.582031 149.785156 205.691406 C 150.242188 206.140625 150.464844 206.679688 150.460938 207.320312 C 150.464844 207.964844 150.242188 208.511719 149.785156 208.96875 C 149.679688 209.082031 149.5625 209.183594 149.4375 209.269531 C 149.296875 209.339844 149.179688 209.410156 149.042969 209.480469 C 148.898438 209.527344 148.75 209.566406 148.601562 209.597656 C 148.449219 209.636719 148.292969 209.652344 148.136719 209.640625 C 147.832031 209.648438 147.535156 209.59375 147.253906 209.480469 C 146.972656 209.355469 146.722656 209.1875 146.507812 208.96875 C 146.042969 208.515625 145.8125 207.964844 145.808594 207.320312 C 145.8125 206.679688 146.046875 206.136719 146.507812 205.691406 Z M 130.453125 205.691406 C 130.566406 205.578125 130.691406 205.480469 130.824219 205.390625 C 130.941406 205.320312 131.082031 205.25 131.222656 205.179688 C 131.359375 205.113281 131.496094 205.089844 131.664062 205.042969 C 131.964844 204.996094 132.265625 204.996094 132.566406 205.042969 L 132.988281 205.179688 L 133.40625 205.390625 C 133.527344 205.484375 133.640625 205.585938 133.753906 205.691406 C 134.199219 206.144531 134.421875 206.6875 134.425781 207.320312 C 134.421875 207.957031 134.199219 208.507812 133.753906 208.96875 C 133.648438 209.074219 133.53125 209.167969 133.40625 209.246094 C 133.269531 209.332031 133.132812 209.410156 132.988281 209.480469 C 132.847656 209.53125 132.710938 209.566406 132.566406 209.597656 C 132.414062 209.636719 132.257812 209.648438 132.101562 209.640625 C 131.953125 209.648438 131.804688 209.632812 131.660156 209.597656 C 131.507812 209.570312 131.363281 209.53125 131.21875 209.480469 C 131.078125 209.414062 130.945312 209.339844 130.820312 209.246094 C 130.683594 209.175781 130.558594 209.082031 130.453125 208.96875 C 130.007812 208.507812 129.78125 207.957031 129.777344 207.320312 C 129.785156 206.6875 130.007812 206.144531 130.453125 205.691406 Z M 130.453125 205.691406 " fill-opacity="1" fill-rule="nonzero"/></g><g clip-path="url(#f76823eb85)"><path fill="#141c3a" d="M 171.464844 234.585938 C 170.746094 234.589844 170.035156 234.652344 169.328125 234.773438 C 168.621094 234.898438 167.929688 235.082031 167.253906 235.324219 C 166.578125 235.570312 165.929688 235.867188 165.308594 236.222656 C 164.683594 236.578125 164.097656 236.984375 163.542969 237.445312 C 162.992188 237.902344 162.480469 238.402344 162.015625 238.949219 C 161.550781 239.492188 161.132812 240.074219 160.769531 240.691406 C 160.402344 241.308594 160.09375 241.953125 159.839844 242.625 C 159.585938 243.296875 159.390625 243.984375 159.253906 244.6875 L 215.746094 244.6875 C 215.609375 243.984375 215.417969 243.296875 215.164062 242.625 C 214.90625 241.953125 214.597656 241.308594 214.234375 240.691406 C 213.867188 240.074219 213.453125 239.492188 212.984375 238.949219 C 212.519531 238.402344 212.011719 237.902344 211.457031 237.445312 C 210.90625 236.984375 210.316406 236.578125 209.695312 236.222656 C 209.070312 235.867188 208.421875 235.570312 207.746094 235.324219 C 207.070312 235.082031 206.382812 234.898438 205.675781 234.773438 C 204.96875 234.652344 204.257812 234.589844 203.539062 234.585938 Z M 171.464844 234.585938 " fill-opacity="1" fill-rule="nonzero"/></g><path fill="#141c3a" d="M 180.664062 219.03125 L 194.328125 219.03125 L 194.328125 229.941406 L 180.664062 229.941406 Z M 180.664062 219.03125 " fill-opacity="1" fill-rule="nonzero"/><g clip-path="url(#ee1c47d7e3)"><path fill="#141c3a" d="M 248.105469 130.542969 L 126.882812 130.542969 C 126.589844 130.546875 126.300781 130.574219 126.015625 130.632812 C 125.730469 130.6875 125.453125 130.773438 125.183594 130.882812 C 124.914062 130.996094 124.65625 131.132812 124.414062 131.296875 C 124.171875 131.457031 123.949219 131.640625 123.742188 131.847656 C 123.535156 132.054688 123.351562 132.277344 123.1875 132.519531 C 123.027344 132.765625 122.890625 133.019531 122.777344 133.289062 C 122.664062 133.558594 122.582031 133.835938 122.523438 134.121094 C 122.46875 134.410156 122.4375 134.699219 122.4375 134.988281 L 122.4375 196.011719 L 252.550781 196.011719 L 252.550781 134.988281 C 252.550781 134.699219 252.523438 134.410156 252.464844 134.121094 C 252.410156 133.835938 252.324219 133.558594 252.210938 133.289062 C 252.101562 133.019531 251.964844 132.765625 251.800781 132.519531 C 251.640625 132.277344 251.453125 132.054688 251.25 131.847656 C 251.042969 131.640625 250.816406 131.457031 250.574219 131.296875 C 250.332031 131.132812 250.078125 130.996094 249.808594 130.882812 C 249.539062 130.773438 249.261719 130.6875 248.972656 130.632812 C 248.6875 130.574219 248.398438 130.546875 248.105469 130.542969 Z M 177.039062 176.53125 C 177.285156 176.710938 177.488281 176.933594 177.648438 177.191406 C 177.808594 177.453125 177.910156 177.734375 177.960938 178.035156 C 178.007812 178.335938 177.996094 178.636719 177.929688 178.933594 C 177.859375 179.230469 177.734375 179.503906 177.558594 179.753906 C 177.382812 180 177.164062 180.207031 176.90625 180.371094 C 176.648438 180.53125 176.367188 180.640625 176.066406 180.691406 C 175.765625 180.746094 175.464844 180.738281 175.167969 180.675781 C 174.871094 180.609375 174.59375 180.488281 174.34375 180.316406 L 157.890625 168.589844 C 157.738281 168.484375 157.601562 168.359375 157.480469 168.21875 C 157.359375 168.082031 157.257812 167.929688 157.171875 167.761719 C 157.085938 167.597656 157.023438 167.425781 156.980469 167.246094 C 156.9375 167.066406 156.914062 166.882812 156.914062 166.699219 C 156.914062 166.515625 156.9375 166.332031 156.980469 166.152344 C 157.023438 165.972656 157.085938 165.800781 157.171875 165.632812 C 157.257812 165.46875 157.359375 165.316406 157.480469 165.179688 C 157.601562 165.039062 157.738281 164.914062 157.890625 164.808594 L 174.34375 153.082031 C 174.59375 152.90625 174.871094 152.785156 175.167969 152.722656 C 175.464844 152.65625 175.765625 152.648438 176.066406 152.703125 C 176.367188 152.753906 176.648438 152.863281 176.90625 153.027344 C 177.164062 153.1875 177.382812 153.394531 177.558594 153.644531 C 177.734375 153.890625 177.859375 154.164062 177.929688 154.460938 C 177.996094 154.761719 178.007812 155.058594 177.960938 155.359375 C 177.910156 155.664062 177.808594 155.941406 177.648438 156.203125 C 177.488281 156.464844 177.285156 156.683594 177.039062 156.863281 L 163.230469 166.703125 Z M 185.636719 187.347656 C 185.582031 187.609375 185.488281 187.855469 185.347656 188.082031 C 185.210938 188.3125 185.039062 188.511719 184.828125 188.679688 C 184.621094 188.851562 184.394531 188.980469 184.140625 189.070312 C 183.890625 189.160156 183.628906 189.207031 183.363281 189.207031 C 183.1875 189.207031 183.019531 189.1875 182.851562 189.148438 C 182.683594 189.113281 182.519531 189.054688 182.363281 188.984375 C 182.207031 188.910156 182.0625 188.820312 181.925781 188.710938 C 181.789062 188.605469 181.667969 188.488281 181.558594 188.351562 C 181.449219 188.21875 181.355469 188.074219 181.277344 187.921875 C 181.203125 187.765625 181.140625 187.605469 181.101562 187.4375 C 181.058594 187.273438 181.035156 187.101562 181.035156 186.929688 C 181.03125 186.757812 181.046875 186.585938 181.078125 186.417969 L 189.394531 144.644531 C 189.460938 144.347656 189.582031 144.074219 189.753906 143.824219 C 189.925781 143.574219 190.140625 143.363281 190.394531 143.199219 C 190.648438 143.03125 190.925781 142.921875 191.222656 142.863281 C 191.523438 142.804688 191.820312 142.804688 192.117188 142.863281 C 192.417969 142.925781 192.691406 143.039062 192.945312 143.207031 C 193.199219 143.375 193.414062 143.582031 193.585938 143.835938 C 193.753906 144.085938 193.871094 144.359375 193.9375 144.65625 C 194 144.953125 194.003906 145.253906 193.953125 145.550781 Z M 217.132812 168.589844 L 200.679688 180.316406 C 200.425781 180.488281 200.152344 180.609375 199.855469 180.675781 C 199.554688 180.738281 199.257812 180.746094 198.957031 180.691406 C 198.65625 180.640625 198.375 180.53125 198.117188 180.371094 C 197.859375 180.207031 197.640625 180 197.464844 179.753906 C 197.285156 179.503906 197.164062 179.230469 197.09375 178.933594 C 197.023438 178.636719 197.015625 178.335938 197.0625 178.035156 C 197.113281 177.734375 197.214844 177.453125 197.375 177.191406 C 197.535156 176.933594 197.738281 176.710938 197.984375 176.53125 L 211.757812 166.703125 L 197.960938 156.871094 C 197.714844 156.691406 197.511719 156.472656 197.355469 156.210938 C 197.195312 155.949219 197.089844 155.667969 197.042969 155.367188 C 196.992188 155.066406 197.003906 154.765625 197.074219 154.46875 C 197.144531 154.171875 197.265625 153.898438 197.441406 153.652344 C 197.621094 153.402344 197.839844 153.195312 198.097656 153.03125 C 198.355469 152.871094 198.632812 152.761719 198.933594 152.710938 C 199.234375 152.65625 199.535156 152.664062 199.832031 152.730469 C 200.132812 152.792969 200.40625 152.914062 200.65625 153.085938 L 217.113281 164.8125 C 217.261719 164.921875 217.398438 165.042969 217.519531 165.183594 C 217.640625 165.324219 217.746094 165.476562 217.828125 165.640625 C 217.914062 165.804688 217.980469 165.976562 218.023438 166.160156 C 218.066406 166.339844 218.085938 166.519531 218.085938 166.707031 C 218.085938 166.890625 218.066406 167.074219 218.023438 167.253906 C 217.980469 167.433594 217.914062 167.605469 217.828125 167.769531 C 217.746094 167.933594 217.640625 168.085938 217.519531 168.226562 C 217.398438 168.367188 217.261719 168.492188 217.113281 168.597656 Z M 217.132812 168.589844 " fill-opacity="1" fill-rule="nonzero"/></g></svg>