<svg xmlns="http://www.w3.org/2000/svg" xmlns:xlink="http://www.w3.org/1999/xlink" width="500" zoomAndPan="magnify" viewBox="0 0 375 374.999991" height="500" preserveAspectRatio="xMidYMid meet" version="1.0"><defs><clipPath id="1b30568f26"><path d="M 82.105469 97 L 292.855469 97 L 292.855469 278 L 82.105469 278 Z M 82.105469 97 " clip-rule="nonzero"/></clipPath></defs><g clip-path="url(#1b30568f26)"><path fill="#11825c" d="M 202.3125 122.75 C 197.328125 122.269531 192.292969 121.503906 187.308594 121.410156 C 174.269531 121.074219 161.515625 123.566406 148.667969 125.53125 C 144.0625 126.25 141.859375 128.265625 139.796875 132.242188 C 132.703125 145.859375 124.984375 159.140625 117.503906 172.515625 C 117.023438 173.425781 116.402344 174.578125 116.546875 175.488281 C 117.265625 179.707031 118.269531 183.828125 119.230469 188.382812 C 120.476562 187.425781 121.433594 186.707031 122.394531 186.035156 C 127.765625 182.054688 134.429688 182.871094 137.785156 187.953125 C 140.230469 191.59375 139.941406 195.71875 136.96875 198.929688 C 130.785156 205.644531 124.550781 212.355469 118.269531 219.019531 C 115.25 222.230469 110.121094 222.804688 106.191406 220.503906 C 102.5 218.347656 100.773438 214.082031 102.113281 209.71875 C 102.691406 207.847656 103.648438 206.027344 104.847656 204.445312 C 107.054688 201.519531 109.59375 198.835938 111.894531 195.957031 C 112.46875 195.238281 112.902344 193.992188 112.757812 193.128906 C 112.183594 189.964844 111.367188 186.847656 110.550781 183.734375 C 110.410156 183.15625 109.832031 182.4375 109.257812 182.199219 C 107.101562 181.335938 104.703125 180.855469 102.691406 179.753906 C 98.375 177.40625 94.253906 174.71875 90.035156 172.179688 C 88.835938 171.460938 87.636719 170.835938 86.34375 170.308594 C 83.082031 168.96875 82.21875 167.527344 83.511719 164.269531 C 85 160.578125 86.675781 156.933594 88.453125 153.386719 C 95.59375 139.003906 103.503906 125.050781 112.421875 111.675781 C 113.910156 109.472656 115.632812 107.363281 117.503906 105.394531 C 120.476562 102.230469 122.96875 101.894531 126.421875 104.582031 C 131.070312 108.175781 135.578125 112.058594 139.894531 116.085938 C 142.003906 118.050781 143.777344 118.964844 146.941406 118.339844 C 159.5 115.800781 172.207031 113.738281 185.054688 113.691406 C 195.839844 113.640625 206.53125 114.792969 216.023438 120.882812 C 218.375 122.414062 220.769531 121.410156 222.449219 119.25 C 227.675781 112.539062 232.949219 105.828125 238.460938 99.308594 C 240.667969 96.671875 242.585938 96.765625 245.222656 99.019531 C 260.371094 112.058594 275.472656 125.101562 290.574219 138.140625 C 292.683594 139.960938 292.78125 141.925781 290.765625 144.132812 C 286.835938 148.449219 282.855469 152.761719 278.828125 156.980469 C 276.910156 158.996094 275.328125 160.816406 274.851562 163.886719 C 273.746094 171.269531 271.636719 178.410156 266.652344 184.546875 C 268.089844 185.699219 269.191406 186.898438 270.535156 187.710938 C 276 191.117188 276.816406 196.199219 275.472656 201.808594 C 273.601562 209.667969 268.617188 214.703125 260.804688 216.765625 C 259.363281 217.148438 258.886719 217.773438 258.644531 219.355469 C 257.351562 228.175781 253.804688 235.605469 245.175781 239.632812 C 244.40625 239.96875 243.878906 241.359375 243.785156 242.316406 C 243.398438 247.066406 242.34375 251.570312 239.179688 255.359375 C 236.449219 258.617188 232.902344 260.632812 228.632812 260.824219 C 226.574219 260.917969 225.949219 261.78125 225.46875 263.554688 C 223.359375 271.515625 214.585938 278.324219 206.390625 277.9375 C 203.703125 277.796875 200.730469 276.691406 198.527344 275.160156 C 189.847656 269.070312 181.457031 262.644531 172.925781 256.316406 C 172.734375 256.171875 172.542969 256.078125 172.109375 255.839844 C 170.433594 257.660156 168.800781 259.578125 167.027344 261.351562 C 162.042969 266.386719 154.132812 265.042969 151.0625 258.667969 C 149.625 255.695312 149.671875 252.816406 152.070312 250.132812 C 158.015625 243.371094 164.007812 236.660156 169.617188 229.660156 C 173.214844 225.203125 179.347656 225.730469 182.417969 228.078125 C 186.347656 231.050781 187.59375 236.949219 184.765625 241.070312 C 183.136719 243.46875 180.980469 245.484375 179.0625 247.6875 C 178.488281 248.359375 177.863281 249.03125 177.097656 249.894531 C 179.589844 251.859375 181.84375 253.777344 184.238281 255.550781 C 190.519531 260.105469 196.847656 264.5625 203.175781 269.117188 C 205.191406 270.554688 207.25 270.746094 209.503906 269.835938 C 213.722656 268.207031 217.273438 265.859375 218.660156 261.160156 C 219.046875 259.769531 218.855469 258.761719 217.800781 257.898438 C 209.746094 251.378906 201.691406 244.90625 193.589844 238.433594 C 191.863281 237.09375 190.089844 235.894531 190.28125 233.304688 C 190.472656 231.101562 191.910156 229.757812 194.019531 230.378906 C 195.890625 230.90625 197.808594 231.769531 199.339844 232.96875 C 206.195312 238.433594 212.910156 244.042969 219.667969 249.605469 C 220.339844 250.132812 220.914062 250.707031 221.585938 251.234375 C 226.765625 255.359375 233.765625 253.007812 235.488281 246.585938 C 235.632812 246.011719 235.777344 245.386719 235.875 244.8125 C 236.6875 241.121094 236.160156 238.195312 232.707031 235.65625 C 225.085938 230.046875 217.800781 224.050781 210.464844 218.109375 C 209.410156 217.246094 208.210938 216.191406 207.875 214.992188 C 207.539062 213.792969 207.730469 211.875 208.546875 211.058594 C 209.3125 210.292969 211.136719 210.292969 212.476562 210.339844 C 213.292969 210.390625 214.058594 211.203125 214.777344 211.777344 C 222.449219 217.914062 230.121094 224.101562 237.789062 230.238281 C 241.722656 233.402344 243.351562 233.257812 246.5625 229.324219 C 249.25 226.066406 251.214844 222.421875 251.261719 218.109375 C 251.261719 216.957031 250.640625 215.519531 249.777344 214.75 C 243.0625 209 236.257812 203.390625 229.542969 197.636719 C 228.203125 196.535156 227.003906 195.191406 226.046875 193.753906 C 225.085938 192.363281 225.324219 190.539062 226.714844 189.628906 C 227.769531 188.957031 229.542969 188.574219 230.695312 189.007812 C 232.375 189.628906 233.8125 190.925781 235.203125 192.121094 C 241.339844 197.347656 247.476562 202.621094 253.46875 207.992188 C 255.671875 209.957031 257.878906 210.53125 260.324219 209 C 262.386719 207.703125 264.589844 206.410156 266.078125 204.589844 C 269.671875 200.273438 269.097656 196.246094 264.925781 192.601562 C 248.050781 177.789062 231.222656 162.972656 214.300781 148.304688 C 213.292969 147.441406 211.519531 146.914062 210.175781 147.105469 C 202.792969 148.0625 195.410156 149.117188 188.121094 150.414062 C 185.773438 150.84375 183.519531 152.042969 181.21875 152.953125 C 174.363281 155.734375 168.082031 154.488281 162.328125 150.269531 C 158.445312 147.441406 158.015625 143.652344 161.46875 140.25 C 164.679688 137.085938 168.609375 134.640625 171.871094 131.523438 C 176.234375 127.351562 181.457031 125.820312 187.308594 125.386719 C 192.339844 125.003906 197.328125 124.09375 202.363281 123.421875 C 202.3125 123.277344 202.3125 123.039062 202.3125 122.75 Z M 122.824219 110.667969 C 110.074219 127.6875 100.722656 145.953125 91.566406 164.414062 C 97.273438 167.71875 102.59375 170.835938 108.109375 174.050781 C 116.640625 158.515625 125.03125 143.269531 133.375 128.023438 C 134.234375 126.441406 136.011719 124.621094 135.722656 123.230469 C 135.433594 121.695312 133.277344 120.496094 131.886719 119.203125 C 129.105469 116.46875 126.183594 113.785156 122.824219 110.667969 Z M 282.953125 141.398438 C 281.320312 140.058594 279.882812 138.90625 278.542969 137.707031 C 272.597656 132.386719 266.746094 126.96875 260.660156 121.742188 C 255.144531 116.996094 249.394531 112.445312 243.734375 107.890625 C 243.207031 107.457031 241.816406 107.265625 241.53125 107.554688 C 237.695312 112.011719 233.957031 116.566406 230.070312 121.214844 C 243.640625 132.433594 257.0625 143.558594 270.632812 154.777344 C 274.800781 150.316406 278.828125 145.953125 282.953125 141.398438 Z M 282.953125 141.398438 " fill-opacity="1" fill-rule="nonzero"/></g><path fill="#11825c" d="M 161.800781 213.167969 C 166.835938 213.167969 170.960938 216.8125 171.054688 221.703125 C 171.101562 223.285156 170.480469 225.25 169.472656 226.496094 C 162.378906 234.984375 155.140625 243.324219 147.949219 251.714844 C 143.824219 256.507812 138.742188 257.324219 134.429688 253.96875 C 129.875 250.371094 129.105469 244.285156 133.039062 239.488281 C 138.070312 233.402344 143.441406 227.601562 148.667969 221.65625 C 150.105469 220.023438 151.496094 218.394531 152.980469 216.859375 C 155.714844 214.082031 157.96875 213.167969 161.800781 213.167969 Z M 161.800781 213.167969 " fill-opacity="1" fill-rule="nonzero"/><path fill="#11825c" d="M 125.941406 240.976562 C 118.128906 240.449219 113.523438 232.539062 117.457031 225.585938 C 119.710938 221.558594 122.875 217.964844 125.941406 214.464844 C 129.875 209.957031 134.042969 205.644531 138.167969 201.28125 C 140.898438 198.402344 146.171875 197.589844 149.671875 199.457031 C 153.269531 201.375 155.425781 206.074219 154.324219 210.054688 C 154.035156 211.058594 153.460938 212.019531 152.742188 212.832031 C 145.117188 221.558594 137.496094 230.285156 129.777344 238.914062 C 128.820312 239.921875 127.238281 240.304688 125.941406 240.976562 Z M 125.941406 240.976562 " fill-opacity="1" fill-rule="nonzero"/></svg>