<svg xmlns="http://www.w3.org/2000/svg" xmlns:xlink="http://www.w3.org/1999/xlink" width="500" zoomAndPan="magnify" viewBox="0 0 375 374.999991" height="500" preserveAspectRatio="xMidYMid meet" version="1.0"><defs><clipPath id="e79d542267"><path d="M 112.5 112.5 L 262.5 112.5 L 262.5 262.5 L 112.5 262.5 Z M 112.5 112.5 " clip-rule="nonzero"/></clipPath></defs><g clip-path="url(#e79d542267)"><path fill="#0069d1" d="M 262.5 195 L 262.5 240 C 262.5 252.40625 252.40625 262.5 240 262.5 L 135 262.5 C 122.59375 262.5 112.5 252.40625 112.5 240 L 112.5 135 C 112.5 122.59375 122.59375 112.5 135 112.5 L 180 112.5 C 184.144531 112.5 187.5 115.855469 187.5 120 C 187.5 124.144531 184.144531 127.5 180 127.5 L 135 127.5 C 130.863281 127.5 127.5 130.863281 127.5 135 L 127.5 240 C 127.5 244.136719 130.863281 247.5 135 247.5 L 240 247.5 C 244.136719 247.5 247.5 244.136719 247.5 240 L 247.5 195 C 247.5 190.855469 250.855469 187.5 255 187.5 C 259.144531 187.5 262.5 190.855469 262.5 195 Z M 255 112.5 L 210 112.5 C 205.855469 112.5 202.5 115.855469 202.5 120 C 202.5 124.144531 205.855469 127.5 210 127.5 L 236.894531 127.5 L 182.195312 182.199219 C 179.269531 185.125 179.269531 189.875 182.195312 192.800781 C 183.660156 194.265625 185.582031 195 187.5 195 C 189.417969 195 191.335938 194.265625 192.800781 192.800781 L 247.5 138.105469 L 247.5 165 C 247.5 169.144531 250.855469 172.5 255 172.5 C 259.144531 172.5 262.5 169.144531 262.5 165 L 262.5 120 C 262.5 115.855469 259.144531 112.5 255 112.5 Z M 255 112.5 " fill-opacity="1" fill-rule="nonzero"/></g></svg>