<svg xmlns="http://www.w3.org/2000/svg" xmlns:xlink="http://www.w3.org/1999/xlink" width="500" zoomAndPan="magnify" viewBox="0 0 375 374.999991" height="500" preserveAspectRatio="xMidYMid meet" version="1.0"><defs><clipPath id="1ac2f94223"><path d="M 112.5 112.5 L 262.5 112.5 L 262.5 262.5 L 112.5 262.5 Z M 112.5 112.5 " clip-rule="nonzero"/></clipPath></defs><path fill="#000000" d="M 220.480469 171.007812 C 220.480469 171.007812 221.621094 194.957031 203.359375 209.742188 C 176.125 231.855469 146.746094 213.910156 146.746094 213.910156 C 146.746094 213.910156 153.886719 214.039062 160.203125 212.332031 C 166.523438 210.625 171.007812 206.582031 171.007812 206.582031 C 171.007812 206.582031 164.121094 205.128906 160.582031 202.539062 C 156.980469 199.949219 155.65625 194.957031 155.65625 194.957031 C 155.65625 194.957031 157.992188 195.144531 159.507812 195.144531 C 161.027344 195.082031 162.859375 194.386719 162.859375 194.386719 C 162.859375 194.386719 157.929688 193.820312 153.316406 188.636719 C 149.714844 184.59375 149.96875 177.832031 149.96875 177.832031 C 149.96875 177.832031 152.117188 179.097656 153.316406 179.414062 C 154.453125 179.726562 156.664062 179.726562 156.664062 179.726562 C 156.664062 179.726562 152.371094 177.136719 150.410156 170.566406 C 148.515625 163.933594 152.179688 157.234375 152.179688 157.234375 C 152.179688 157.234375 158.5 164.941406 168.039062 169.933594 C 177.578125 174.925781 186.550781 174.738281 186.550781 174.738281 C 186.550781 174.738281 185.226562 170.757812 187.5 164.941406 C 189.773438 159.066406 194.957031 154.898438 202.789062 154.265625 C 210.625 153.632812 215.617188 159.574219 215.617188 159.574219 C 215.617188 159.574219 218.019531 159.128906 220.796875 158.121094 C 223.578125 157.109375 226.296875 155.84375 226.296875 155.84375 C 226.296875 155.84375 225.347656 158.8125 223.453125 161.152344 C 221.554688 163.488281 219.40625 164.878906 219.40625 164.878906 C 219.40625 164.878906 221.871094 164.691406 224.335938 163.996094 C 226.800781 163.300781 228.191406 162.605469 228.191406 162.605469 C 225.472656 167.40625 220.480469 171.007812 220.480469 171.007812 Z M 220.480469 171.007812 " fill-opacity="1" fill-rule="nonzero"/><g clip-path="url(#1ac2f94223)"><path fill="#000000" d="M 187.5 262.5 C 146.175781 262.5 112.5 228.886719 112.5 187.5 C 112.5 146.113281 146.175781 112.5 187.5 112.5 C 228.824219 112.5 262.5 146.175781 262.5 187.5 C 262.5 228.824219 228.886719 262.5 187.5 262.5 Z M 187.5 116.605469 C 148.390625 116.605469 116.605469 148.390625 116.605469 187.5 C 116.605469 226.609375 148.390625 258.394531 187.5 258.394531 C 226.609375 258.394531 258.394531 226.609375 258.394531 187.5 C 258.394531 148.390625 226.609375 116.605469 187.5 116.605469 Z M 187.5 116.605469 " fill-opacity="1" fill-rule="nonzero"/></g></svg>