<svg xmlns="http://www.w3.org/2000/svg" xmlns:xlink="http://www.w3.org/1999/xlink" width="500" zoomAndPan="magnify" viewBox="0 0 375 374.999991" height="500" preserveAspectRatio="xMidYMid meet" version="1.0"><defs><clipPath id="87f6e09da5"><path d="M 112.5 112.5 L 262.5 112.5 L 262.5 262.5 L 112.5 262.5 Z M 112.5 112.5 " clip-rule="nonzero"/></clipPath></defs><path fill="#000000" d="M 235.648438 187.5 C 235.648438 214.101562 214.101562 235.582031 187.5625 235.582031 C 182.824219 235.582031 178.273438 234.886719 173.914062 233.625 C 174.988281 231.351562 178.273438 224.589844 178.96875 221.871094 C 179.726562 219.09375 181.941406 210.121094 181.941406 210.121094 C 185.097656 213.59375 188.890625 215.871094 193.566406 215.742188 C 211.195312 215.238281 218.335938 200.832031 219.40625 186.867188 C 220.355469 175.117188 213.152344 155.90625 188.320312 155.90625 C 165.511719 155.90625 157.234375 171.832031 155.59375 181.246094 C 153.824219 191.605469 158.6875 203.546875 166.777344 203.863281 L 168.417969 197.421875 C 165.007812 193.375 163.175781 188.449219 164.691406 181.179688 C 165.953125 175.050781 173.347656 163.238281 188.574219 163.679688 C 206.265625 164.183594 208.917969 178.96875 207.59375 187.691406 C 204.117188 210.5625 191.101562 207.59375 190.660156 207.464844 C 185.667969 206.519531 184.59375 202.855469 184.78125 199.253906 C 184.972656 195.523438 188.070312 191.542969 189.078125 184.910156 C 189.710938 180.738281 189.144531 175.050781 183.582031 174.484375 C 177.644531 173.851562 174.800781 180.042969 174.359375 182.320312 C 173.285156 187.625 173.851562 189.902344 175.304688 194.261719 C 175.304688 194.261719 170.757812 213.722656 168.988281 220.417969 C 168.417969 222.695312 168.230469 228.445312 168.164062 231.414062 C 151.230469 223.957031 139.417969 207.023438 139.417969 187.375 C 139.417969 160.773438 160.960938 139.289062 187.5 139.289062 C 214.039062 139.417969 235.648438 160.960938 235.648438 187.5 Z M 235.648438 187.5 " fill-opacity="1" fill-rule="nonzero"/><g clip-path="url(#87f6e09da5)"><path fill="#000000" d="M 187.5 262.5 C 146.175781 262.5 112.5 228.886719 112.5 187.5 C 112.5 146.113281 146.175781 112.5 187.5 112.5 C 228.886719 112.5 262.5 146.175781 262.5 187.5 C 262.5 228.824219 228.886719 262.5 187.5 262.5 Z M 187.5 116.605469 C 148.390625 116.605469 116.605469 148.390625 116.605469 187.5 C 116.605469 226.609375 148.390625 258.394531 187.5 258.394531 C 226.609375 258.394531 258.394531 226.609375 258.394531 187.5 C 258.394531 148.390625 226.609375 116.605469 187.5 116.605469 Z M 187.5 116.605469 " fill-opacity="1" fill-rule="nonzero"/></g></svg>