<svg xmlns="http://www.w3.org/2000/svg" xmlns:xlink="http://www.w3.org/1999/xlink" width="500" zoomAndPan="magnify" viewBox="0 0 375 374.999991" height="500" preserveAspectRatio="xMidYMid meet" version="1.0"><defs><clipPath id="4a90ed8660"><path d="M 112.5 112.5 L 262.5 112.5 L 262.5 262.5 L 112.5 262.5 Z M 112.5 112.5 " clip-rule="nonzero"/></clipPath><clipPath id="14fae82870"><path d="M 187.5 112.5 C 146.078125 112.5 112.5 146.078125 112.5 187.5 C 112.5 228.921875 146.078125 262.5 187.5 262.5 C 228.921875 262.5 262.5 228.921875 262.5 187.5 C 262.5 146.078125 228.921875 112.5 187.5 112.5 Z M 187.5 112.5 " clip-rule="nonzero"/></clipPath><clipPath id="936acab8df"><path d="M 149.011719 149.011719 L 226 149.011719 L 226 226 L 149.011719 226 Z M 149.011719 149.011719 " clip-rule="nonzero"/></clipPath></defs><g clip-path="url(#4a90ed8660)"><g clip-path="url(#14fae82870)"><path stroke-linecap="butt" transform="matrix(0.75, 0, 0, 0.75, 112.499997, 112.499993)" fill="none" stroke-linejoin="miter" d="M 100.000004 0.00000985 C 44.770837 0.00000985 0.00000385 44.770843 0.00000385 100.00001 C 0.00000385 155.229177 44.770837 200.00001 100.000004 200.00001 C 155.229171 200.00001 200.000004 155.229177 200.000004 100.00001 C 200.000004 44.770843 155.229171 0.00000985 100.000004 0.00000985 Z M 100.000004 0.00000985 " stroke="#000000" stroke-width="12" stroke-opacity="1" stroke-miterlimit="4"/></g></g><g clip-path="url(#936acab8df)"><path fill="#000000" d="M 225.980469 160.695312 C 225.980469 154.238281 220.746094 149.007812 214.292969 149.007812 L 160.699219 149.007812 C 154.246094 149.007812 149.011719 154.238281 149.011719 160.695312 L 149.011719 214.289062 C 149.011719 220.742188 154.246094 225.976562 160.699219 225.976562 L 214.292969 225.976562 C 220.746094 225.976562 225.980469 220.742188 225.980469 214.289062 Z M 221.988281 160.695312 L 221.988281 214.289062 C 221.988281 218.539062 218.542969 221.984375 214.292969 221.984375 L 160.699219 221.984375 C 156.449219 221.984375 153.003906 218.539062 153.003906 214.289062 L 153.003906 160.695312 C 153.003906 156.445312 156.449219 152.996094 160.699219 152.996094 L 214.292969 152.996094 C 218.542969 152.996094 221.988281 156.445312 221.988281 160.695312 Z M 187.496094 167.25 C 176.324219 167.25 167.257812 176.320312 167.257812 187.492188 C 167.257812 198.660156 176.324219 207.730469 187.496094 207.730469 C 198.667969 207.730469 207.734375 198.660156 207.734375 187.492188 C 207.734375 176.320312 198.667969 167.25 187.496094 167.25 Z M 187.496094 171.242188 C 196.464844 171.242188 203.746094 178.523438 203.746094 187.492188 C 203.746094 196.460938 196.464844 203.738281 187.496094 203.738281 C 178.527344 203.738281 171.246094 196.460938 171.246094 187.492188 C 171.246094 178.523438 178.527344 171.242188 187.496094 171.242188 Z M 210.300781 160.125 C 212.820312 160.125 214.863281 162.167969 214.863281 164.6875 C 214.863281 167.203125 212.820312 169.246094 210.300781 169.246094 C 207.785156 169.246094 205.742188 167.203125 205.742188 164.6875 C 205.742188 162.167969 207.785156 160.125 210.300781 160.125 Z M 210.300781 160.125 " fill-opacity="1" fill-rule="evenodd"/></g></svg>