<svg xmlns="http://www.w3.org/2000/svg" xmlns:xlink="http://www.w3.org/1999/xlink" width="500" zoomAndPan="magnify" viewBox="0 0 375 374.999991" height="500" preserveAspectRatio="xMidYMid meet" version="1.0"><defs><clipPath id="2cf3c1c48a"><path d="M 169.789062 150 L 205.039062 150 L 205.039062 225 L 169.789062 225 Z M 169.789062 150 " clip-rule="nonzero"/></clipPath><clipPath id="02278083fe"><path d="M 112.5 112.5 L 262.5 112.5 L 262.5 262.5 L 112.5 262.5 Z M 112.5 112.5 " clip-rule="nonzero"/></clipPath><clipPath id="ece4847c46"><path d="M 187.5 112.5 C 146.078125 112.5 112.5 146.078125 112.5 187.5 C 112.5 228.921875 146.078125 262.5 187.5 262.5 C 228.921875 262.5 262.5 228.921875 262.5 187.5 C 262.5 146.078125 228.921875 112.5 187.5 112.5 Z M 187.5 112.5 " clip-rule="nonzero"/></clipPath></defs><g clip-path="url(#2cf3c1c48a)"><path fill="#000000" d="M 197.035156 162.457031 L 205.203125 162.457031 L 205.203125 150.136719 L 194.769531 150.136719 L 194.769531 150.183594 C 181.054688 150.6875 178.226562 158.371094 177.992188 166.492188 L 177.960938 166.492188 L 177.960938 175.039062 L 169.789062 175.039062 L 169.789062 187.375 L 177.960938 187.375 L 177.960938 224.863281 L 192.617188 224.863281 L 192.617188 187.375 L 203.128906 187.375 L 205.203125 175.039062 L 192.617188 175.039062 L 192.617188 167.390625 C 192.617188 164.671875 194.441406 162.457031 197.035156 162.457031 Z M 197.035156 162.457031 " fill-opacity="1" fill-rule="nonzero"/></g><g clip-path="url(#02278083fe)"><g clip-path="url(#ece4847c46)"><path stroke-linecap="butt" transform="matrix(0.75, 0, 0, 0.75, 112.499997, 112.499993)" fill="none" stroke-linejoin="miter" d="M 100.000004 0.00000985 C 44.770837 0.00000985 0.00000385 44.770843 0.00000385 100.00001 C 0.00000385 155.229177 44.770837 200.00001 100.000004 200.00001 C 155.229171 200.00001 200.000004 155.229177 200.000004 100.00001 C 200.000004 44.770843 155.229171 0.00000985 100.000004 0.00000985 Z M 100.000004 0.00000985 " stroke="#000000" stroke-width="12" stroke-opacity="1" stroke-miterlimit="4"/></g></g></svg>