<svg xmlns="http://www.w3.org/2000/svg" xmlns:xlink="http://www.w3.org/1999/xlink" width="500" zoomAndPan="magnify" viewBox="0 0 375 374.999991" height="500" preserveAspectRatio="xMidYMid meet" version="1.0"><defs><clipPath id="8aa61c7899"><path d="M 112.5 112.5 L 262.5 112.5 L 262.5 262.5 L 112.5 262.5 Z M 112.5 112.5 " clip-rule="nonzero"/></clipPath></defs><path fill="#000000" d="M 213.847656 228.0625 C 212.964844 229.960938 203.234375 234.699219 192.113281 233.054688 C 180.675781 231.351562 170.25 222.566406 170.25 207.84375 C 170.25 193.1875 170.25 178.96875 170.25 178.96875 L 161.152344 178.96875 L 161.152344 166.902344 C 161.152344 166.902344 168.859375 164.628906 173.664062 157.675781 C 177.832031 151.609375 178.71875 145.101562 179.035156 142.640625 C 179.097656 142.007812 179.601562 141.566406 180.234375 141.566406 L 193.3125 141.566406 L 193.3125 164.941406 L 211.699219 164.941406 L 211.699219 179.035156 L 193.3125 179.035156 C 193.3125 179.035156 193.3125 196.789062 193.3125 205.507812 C 193.3125 214.734375 195.964844 218.648438 209.363281 215.113281 C 209.363281 215.113281 212.835938 224.84375 213.847656 228.0625 Z M 213.847656 228.0625 " fill-opacity="1" fill-rule="nonzero"/><g clip-path="url(#8aa61c7899)"><path fill="#000000" d="M 187.5 262.5 C 146.175781 262.5 112.5 228.886719 112.5 187.5 C 112.5 146.175781 146.175781 112.5 187.5 112.5 C 228.824219 112.5 262.5 146.175781 262.5 187.5 C 262.5 228.886719 228.886719 262.5 187.5 262.5 Z M 187.5 116.605469 C 148.390625 116.605469 116.605469 148.390625 116.605469 187.5 C 116.605469 226.609375 148.390625 258.394531 187.5 258.394531 C 226.609375 258.394531 258.394531 226.609375 258.394531 187.5 C 258.394531 148.390625 226.609375 116.605469 187.5 116.605469 Z M 187.5 116.605469 " fill-opacity="1" fill-rule="nonzero"/></g></svg>