<svg xmlns="http://www.w3.org/2000/svg" xmlns:xlink="http://www.w3.org/1999/xlink" width="500" zoomAndPan="magnify" viewBox="0 0 375 374.999991" height="500" preserveAspectRatio="xMidYMid meet" version="1.0"><defs><clipPath id="1053855970"><path d="M 78.078125 78.078125 L 296.921875 78.078125 L 296.921875 296.921875 L 78.078125 296.921875 Z M 78.078125 78.078125 " clip-rule="nonzero"/></clipPath><clipPath id="80f0f28ca6"><path d="M 187.5 78.078125 C 127.066406 78.078125 78.078125 127.066406 78.078125 187.5 C 78.078125 247.933594 127.066406 296.921875 187.5 296.921875 C 247.933594 296.921875 296.921875 247.933594 296.921875 187.5 C 296.921875 127.066406 247.933594 78.078125 187.5 78.078125 Z M 187.5 78.078125 " clip-rule="nonzero"/></clipPath><clipPath id="ed133d3afb"><path d="M 145 191 L 245.679688 191 L 245.679688 249.808594 L 145 249.808594 Z M 145 191 " clip-rule="nonzero"/></clipPath><clipPath id="bec48f4388"><path d="M 129.429688 198 L 151 198 L 151 240 L 129.429688 240 Z M 129.429688 198 " clip-rule="nonzero"/></clipPath><clipPath id="738e6e7b9f"><path d="M 137 125.308594 L 230 125.308594 L 230 174 L 137 174 Z M 137 125.308594 " clip-rule="nonzero"/></clipPath></defs><g clip-path="url(#1053855970)"><g clip-path="url(#80f0f28ca6)"><path fill="#5be9b9" d="M 78.078125 78.078125 L 296.921875 78.078125 L 296.921875 296.921875 L 78.078125 296.921875 Z M 78.078125 78.078125 " fill-opacity="1" fill-rule="nonzero"/></g></g><g clip-path="url(#ed133d3afb)"><path fill="#141c3a" d="M 150.238281 231.914062 C 153.027344 232.839844 155.863281 234.019531 159.285156 235.453125 C 162.996094 237.003906 167.613281 238.929688 173.617188 241.105469 C 189.234375 246.757812 193.441406 244.972656 202.65625 241.0625 C 204.527344 240.269531 206.644531 239.371094 209.066406 238.445312 C 221.496094 233.699219 232.78125 214.335938 239.546875 197.015625 C 235.613281 198.164062 232.652344 199.847656 230.71875 202.039062 C 230.710938 202.046875 230.703125 202.054688 230.699219 202.0625 L 215.347656 219.035156 C 215.421875 219.523438 215.460938 220.023438 215.460938 220.535156 C 215.460938 225.949219 211.054688 230.359375 205.636719 230.359375 L 175.445312 230.359375 C 174.078125 230.359375 172.972656 229.25 172.972656 227.882812 C 172.972656 226.515625 174.078125 225.40625 175.445312 225.40625 L 205.636719 225.40625 C 208.324219 225.40625 210.511719 223.21875 210.511719 220.535156 C 210.511719 217.84375 208.324219 215.660156 205.636719 215.660156 L 195.398438 215.660156 C 188.320312 215.660156 181.15625 213.789062 174.679688 210.25 C 165.921875 205.457031 157.707031 204.238281 150.238281 206.605469 Z M 189.488281 249.671875 C 185.050781 249.671875 179.679688 248.5625 171.933594 245.757812 C 165.816406 243.546875 161.136719 241.59375 157.378906 240.019531 C 153.367188 238.34375 150.199219 237.019531 147.074219 236.117188 C 146.015625 235.808594 145.289062 234.839844 145.289062 233.738281 L 145.289062 204.855469 C 145.289062 203.835938 145.914062 202.921875 146.863281 202.550781 C 151.035156 200.917969 155.472656 200.253906 160.050781 200.566406 C 165.542969 200.941406 171.261719 202.738281 177.054688 205.902344 C 182.804688 209.046875 189.148438 210.707031 195.398438 210.707031 L 205.636719 210.707031 C 208.617188 210.707031 211.292969 212.042969 213.09375 214.144531 L 227.015625 198.753906 C 230.007812 195.367188 234.621094 192.964844 240.722656 191.605469 C 242.054688 191.3125 243.441406 191.769531 244.339844 192.796875 C 245.238281 193.828125 245.5 195.265625 245.023438 196.546875 C 241.617188 205.703125 229.078125 236.101562 210.832031 243.074219 C 208.496094 243.964844 206.421875 244.84375 204.589844 245.621094 C 199.136719 247.933594 195.046875 249.671875 189.488281 249.671875 " fill-opacity="1" fill-rule="nonzero"/></g><g clip-path="url(#bec48f4388)"><path fill="#141c3a" d="M 134.410156 234.554688 L 145.289062 234.554688 L 145.289062 203.773438 L 134.410156 203.773438 Z M 146.507812 239.503906 L 133.191406 239.503906 C 131.132812 239.503906 129.460938 237.832031 129.460938 235.773438 L 129.460938 202.554688 C 129.460938 200.496094 131.132812 198.824219 133.191406 198.824219 L 146.507812 198.824219 C 148.566406 198.824219 150.238281 200.496094 150.238281 202.554688 L 150.238281 235.773438 C 150.238281 237.832031 148.566406 239.503906 146.507812 239.503906 " fill-opacity="1" fill-rule="nonzero"/><path fill="#141c3a" d="M 134.410156 234.554688 L 145.289062 234.554688 L 145.289062 203.773438 L 134.410156 203.773438 Z M 146.507812 239.503906 L 133.191406 239.503906 C 131.132812 239.503906 129.460938 237.832031 129.460938 235.773438 L 129.460938 202.554688 C 129.460938 200.496094 131.132812 198.824219 133.191406 198.824219 L 146.507812 198.824219 C 148.566406 198.824219 150.238281 200.496094 150.238281 202.554688 L 150.238281 235.773438 C 150.238281 237.832031 148.566406 239.503906 146.507812 239.503906 " fill-opacity="1" fill-rule="nonzero"/></g><g clip-path="url(#738e6e7b9f)"><path fill="#141c3a" d="M 145.578125 156.453125 L 186.984375 168.398438 L 221.480469 142.570312 L 180.074219 130.621094 Z M 187.480469 173.59375 C 187.25 173.59375 187.019531 173.5625 186.796875 173.496094 L 139.425781 159.832031 C 138.523438 159.570312 137.84375 158.820312 137.675781 157.898438 C 137.507812 156.972656 137.875 156.03125 138.625 155.46875 L 178.09375 125.921875 C 178.714844 125.457031 179.515625 125.308594 180.261719 125.523438 L 227.632812 139.191406 C 228.535156 139.449219 229.214844 140.199219 229.382812 141.121094 C 229.550781 142.046875 229.183594 142.988281 228.429688 143.550781 L 188.964844 173.097656 C 188.53125 173.421875 188.007812 173.59375 187.480469 173.59375 " fill-opacity="1" fill-rule="nonzero"/></g><path fill="#141c3a" d="M 164.679688 187.496094 C 181.816406 192.273438 200.265625 188.898438 214.601562 178.363281 L 210.667969 156.851562 L 188.964844 173.097656 C 188.34375 173.5625 187.539062 173.710938 186.796875 173.496094 L 160.746094 165.980469 Z M 180.230469 194.570312 C 174.050781 194.570312 167.839844 193.664062 161.796875 191.808594 C 160.910156 191.539062 160.253906 190.796875 160.085938 189.886719 L 155.15625 162.941406 C 155.003906 162.097656 155.296875 161.234375 155.933594 160.660156 C 156.566406 160.082031 157.453125 159.878906 158.277344 160.117188 L 186.984375 168.398438 L 210.898438 150.492188 C 211.585938 149.976562 212.488281 149.855469 213.285156 150.167969 C 214.082031 150.480469 214.664062 151.183594 214.816406 152.027344 L 219.746094 178.972656 C 219.914062 179.882812 219.558594 180.808594 218.828125 181.375 C 207.664062 190.035156 194.035156 194.570312 180.230469 194.570312 " fill-opacity="1" fill-rule="nonzero"/><path fill="#141c3a" d="M 224.558594 167.617188 C 223.386719 167.617188 222.347656 166.78125 222.128906 165.585938 L 218.625 146.421875 C 218.375 145.078125 219.265625 143.789062 220.613281 143.542969 C 221.953125 143.296875 223.246094 144.1875 223.492188 145.53125 L 227 164.695312 C 227.242188 166.039062 226.351562 167.328125 225.007812 167.574219 C 224.855469 167.601562 224.707031 167.617188 224.558594 167.617188 " fill-opacity="1" fill-rule="nonzero"/></svg>