<svg xmlns="http://www.w3.org/2000/svg" xmlns:xlink="http://www.w3.org/1999/xlink" width="500" zoomAndPan="magnify" viewBox="0 0 375 374.999991" height="500" preserveAspectRatio="xMidYMid meet" version="1.0"><defs><g/><clipPath id="870767829a"><path d="M 135.398438 107.632812 L 239.648438 107.632812 L 239.648438 199.882812 L 135.398438 199.882812 Z M 135.398438 107.632812 " clip-rule="nonzero"/></clipPath></defs><g fill="#6e07f3" fill-opacity="1"><g transform="translate(104.489952, 241.031178)"><g><path d="M 5.1875 0 L 2.703125 0 L 2.703125 -22.046875 L 12.625 -22.046875 C 14.945312 -22.046875 16.800781 -21.398438 18.1875 -20.109375 C 19.539062 -18.828125 20.21875 -17.109375 20.21875 -14.953125 C 20.21875 -12.773438 19.53125 -11.046875 18.15625 -9.765625 C 16.789062 -8.492188 14.945312 -7.859375 12.625 -7.859375 L 5.1875 -7.859375 Z M 5.1875 -19.671875 L 5.1875 -10.1875 L 12.453125 -10.1875 C 14.179688 -10.1875 15.488281 -10.609375 16.375 -11.453125 C 17.269531 -12.296875 17.71875 -13.453125 17.71875 -14.921875 C 17.71875 -16.398438 17.269531 -17.5625 16.375 -18.40625 C 15.488281 -19.25 14.179688 -19.671875 12.453125 -19.671875 Z M 5.1875 -19.671875 "/></g></g></g><g fill="#6e07f3" fill-opacity="1"><g transform="translate(126.389098, 241.031178)"><g><path d="M 21.9375 0 L 19.171875 0 L 16.484375 -6.390625 L 5.5625 -6.390625 L 2.859375 0 L 0.09375 0 L 9.453125 -22.046875 L 12.59375 -22.046875 Z M 15.515625 -8.6875 L 11.015625 -19.453125 L 6.53125 -8.6875 Z M 15.515625 -8.6875 "/></g></g></g><g fill="#6e07f3" fill-opacity="1"><g transform="translate(149.419805, 241.031178)"><g><path d="M 21.703125 -22.046875 L 21.703125 0 L 18.8125 0 L 5.1875 -18.609375 L 5.1875 0 L 2.703125 0 L 2.703125 -22.046875 L 5.59375 -22.046875 L 19.21875 -3.5 L 19.21875 -22.046875 Z M 21.703125 -22.046875 "/></g></g></g><g fill="#6e07f3" fill-opacity="1"><g transform="translate(174.813455, 241.031178)"><g><path d="M 11.984375 -22.046875 C 13.296875 -22.046875 14.5625 -21.796875 15.78125 -21.296875 C 17 -20.796875 18.078125 -20.066406 19.015625 -19.109375 C 21.078125 -17.003906 22.109375 -14.304688 22.109375 -11.015625 C 22.109375 -7.734375 21.078125 -5.039062 19.015625 -2.9375 C 18.078125 -1.976562 17 -1.25 15.78125 -0.75 C 14.5625 -0.25 13.296875 0 11.984375 0 L 2.703125 0 L 2.703125 -22.046875 Z M 11.890625 -2.359375 C 14.191406 -2.359375 16.066406 -3.210938 17.515625 -4.921875 C 18.910156 -6.566406 19.609375 -8.597656 19.609375 -11.015625 C 19.609375 -13.441406 18.910156 -15.472656 17.515625 -17.109375 C 16.066406 -18.816406 14.191406 -19.671875 11.890625 -19.671875 L 5.1875 -19.671875 L 5.1875 -2.359375 Z M 11.890625 -2.359375 "/></g></g></g><g fill="#6e07f3" fill-opacity="1"><g transform="translate(199.24195, 241.031178)"><g><path d="M 12.484375 -22.3125 C 15.773438 -22.3125 18.472656 -21.210938 20.578125 -19.015625 C 22.640625 -16.878906 23.671875 -14.210938 23.671875 -11.015625 C 23.671875 -7.816406 22.640625 -5.15625 20.578125 -3.03125 C 18.472656 -0.832031 15.773438 0.265625 12.484375 0.265625 C 9.203125 0.265625 6.503906 -0.832031 4.390625 -3.03125 C 2.328125 -5.15625 1.296875 -7.816406 1.296875 -11.015625 C 1.296875 -14.210938 2.328125 -16.878906 4.390625 -19.015625 C 6.503906 -21.210938 9.203125 -22.3125 12.484375 -22.3125 Z M 12.484375 -2.171875 C 15.109375 -2.171875 17.226562 -3.023438 18.84375 -4.734375 C 20.394531 -6.367188 21.171875 -8.460938 21.171875 -11.015625 C 21.171875 -13.566406 20.394531 -15.664062 18.84375 -17.3125 C 17.226562 -19.019531 15.109375 -19.875 12.484375 -19.875 C 9.867188 -19.875 7.75 -19.019531 6.125 -17.3125 C 4.570312 -15.664062 3.796875 -13.566406 3.796875 -11.015625 C 3.796875 -8.460938 4.570312 -6.367188 6.125 -4.734375 C 7.75 -3.023438 9.867188 -2.171875 12.484375 -2.171875 Z M 12.484375 -2.171875 "/></g></g></g><g fill="#6e07f3" fill-opacity="1"><g transform="translate(225.201367, 241.031178)"><g><path d="M 5.1875 0 L 2.703125 0 L 2.703125 -22.046875 L 13.25 -22.046875 C 15.488281 -22.046875 17.285156 -21.421875 18.640625 -20.171875 C 19.992188 -18.953125 20.671875 -17.28125 20.671875 -15.15625 C 20.671875 -12.394531 19.53125 -10.515625 17.25 -9.515625 C 16.601562 -9.234375 15.96875 -9.023438 15.34375 -8.890625 L 21.140625 0 L 18.1875 0 L 12.859375 -8.453125 L 5.1875 -8.453125 Z M 5.1875 -10.828125 L 12.8125 -10.828125 C 15.164062 -10.828125 16.789062 -11.554688 17.6875 -13.015625 C 18.019531 -13.566406 18.1875 -14.28125 18.1875 -15.15625 C 18.1875 -16.550781 17.707031 -17.648438 16.75 -18.453125 C 15.789062 -19.265625 14.523438 -19.671875 12.953125 -19.671875 L 5.1875 -19.671875 Z M 5.1875 -10.828125 "/></g></g></g><g fill="#6e07f3" fill-opacity="1"><g transform="translate(248.465035, 241.031178)"><g><path d="M 21.9375 0 L 19.171875 0 L 16.484375 -6.390625 L 5.5625 -6.390625 L 2.859375 0 L 0.09375 0 L 9.453125 -22.046875 L 12.59375 -22.046875 Z M 15.515625 -8.6875 L 11.015625 -19.453125 L 6.53125 -8.6875 Z M 15.515625 -8.6875 "/></g></g></g><g fill="#6e07f3" fill-opacity="1"><g transform="translate(128.022491, 260.285285)"><g><path d="M 2.21875 0 L 1.15625 0 L 1.15625 -9.40625 L 2.21875 -9.40625 Z M 2.21875 0 "/></g></g></g><g fill="#6e07f3" fill-opacity="1"><g transform="translate(133.84672, 260.285285)"><g><path d="M 9.265625 -9.40625 L 9.265625 0 L 8.03125 0 L 2.21875 -7.9375 L 2.21875 0 L 1.15625 0 L 1.15625 -9.40625 L 2.390625 -9.40625 L 8.1875 -1.484375 L 8.1875 -9.40625 Z M 9.265625 -9.40625 "/></g></g></g><g fill="#6e07f3" fill-opacity="1"><g transform="translate(146.715735, 260.285285)"><g><path d="M 9.265625 -9.40625 L 9.265625 0 L 8.03125 0 L 2.21875 -7.9375 L 2.21875 0 L 1.15625 0 L 1.15625 -9.40625 L 2.390625 -9.40625 L 8.1875 -1.484375 L 8.1875 -9.40625 Z M 9.265625 -9.40625 "/></g></g></g><g fill="#6e07f3" fill-opacity="1"><g transform="translate(159.584751, 260.285285)"><g><path d="M 5.328125 -9.515625 C 6.722656 -9.515625 7.875 -9.046875 8.78125 -8.109375 C 9.65625 -7.203125 10.09375 -6.066406 10.09375 -4.703125 C 10.09375 -3.335938 9.65625 -2.203125 8.78125 -1.296875 C 7.875 -0.359375 6.722656 0.109375 5.328125 0.109375 C 3.921875 0.109375 2.769531 -0.359375 1.875 -1.296875 C 0.988281 -2.203125 0.546875 -3.335938 0.546875 -4.703125 C 0.546875 -6.066406 0.988281 -7.203125 1.875 -8.109375 C 2.769531 -9.046875 3.921875 -9.515625 5.328125 -9.515625 Z M 5.328125 -0.921875 C 6.441406 -0.921875 7.34375 -1.285156 8.03125 -2.015625 C 8.695312 -2.710938 9.03125 -3.609375 9.03125 -4.703125 C 9.03125 -5.785156 8.695312 -6.679688 8.03125 -7.390625 C 7.34375 -8.117188 6.441406 -8.484375 5.328125 -8.484375 C 4.210938 -8.484375 3.304688 -8.117188 2.609375 -7.390625 C 1.953125 -6.679688 1.625 -5.785156 1.625 -4.703125 C 1.625 -3.609375 1.953125 -2.710938 2.609375 -2.015625 C 3.304688 -1.285156 4.210938 -0.921875 5.328125 -0.921875 Z M 5.328125 -0.921875 "/></g></g></g><g fill="#6e07f3" fill-opacity="1"><g transform="translate(172.695215, 260.285285)"><g><path d="M 8.875 -9.40625 L 5.078125 0 L 3.84375 0 L 0.046875 -9.40625 L 1.203125 -9.40625 L 4.453125 -1.203125 L 7.71875 -9.40625 Z M 8.875 -9.40625 "/></g></g></g><g fill="#6e07f3" fill-opacity="1"><g transform="translate(184.072896, 260.285285)"><g><path d="M 9.359375 0 L 8.1875 0 L 7.03125 -2.734375 L 2.375 -2.734375 L 1.21875 0 L 0.046875 0 L 4.03125 -9.40625 L 5.375 -9.40625 Z M 6.625 -3.703125 L 4.703125 -8.296875 L 2.78125 -3.703125 Z M 6.625 -3.703125 "/></g></g></g><g fill="#6e07f3" fill-opacity="1"><g transform="translate(195.933484, 260.285285)"><g><path d="M 7.828125 -8.375 L 4.546875 -8.375 L 4.546875 0 L 3.484375 0 L 3.484375 -8.375 L 0.203125 -8.375 L 0.203125 -9.40625 L 7.828125 -9.40625 Z M 7.828125 -8.375 "/></g></g></g><g fill="#6e07f3" fill-opacity="1"><g transform="translate(206.416363, 260.285285)"><g><path d="M 2.21875 0 L 1.15625 0 L 1.15625 -9.40625 L 2.21875 -9.40625 Z M 2.21875 0 "/></g></g></g><g fill="#6e07f3" fill-opacity="1"><g transform="translate(212.240593, 260.285285)"><g><path d="M 5.328125 -9.515625 C 6.722656 -9.515625 7.875 -9.046875 8.78125 -8.109375 C 9.65625 -7.203125 10.09375 -6.066406 10.09375 -4.703125 C 10.09375 -3.335938 9.65625 -2.203125 8.78125 -1.296875 C 7.875 -0.359375 6.722656 0.109375 5.328125 0.109375 C 3.921875 0.109375 2.769531 -0.359375 1.875 -1.296875 C 0.988281 -2.203125 0.546875 -3.335938 0.546875 -4.703125 C 0.546875 -6.066406 0.988281 -7.203125 1.875 -8.109375 C 2.769531 -9.046875 3.921875 -9.515625 5.328125 -9.515625 Z M 5.328125 -0.921875 C 6.441406 -0.921875 7.34375 -1.285156 8.03125 -2.015625 C 8.695312 -2.710938 9.03125 -3.609375 9.03125 -4.703125 C 9.03125 -5.785156 8.695312 -6.679688 8.03125 -7.390625 C 7.34375 -8.117188 6.441406 -8.484375 5.328125 -8.484375 C 4.210938 -8.484375 3.304688 -8.117188 2.609375 -7.390625 C 1.953125 -6.679688 1.625 -5.785156 1.625 -4.703125 C 1.625 -3.609375 1.953125 -2.710938 2.609375 -2.015625 C 3.304688 -1.285156 4.210938 -0.921875 5.328125 -0.921875 Z M 5.328125 -0.921875 "/></g></g></g><g fill="#6e07f3" fill-opacity="1"><g transform="translate(225.351052, 260.285285)"><g><path d="M 9.265625 -9.40625 L 9.265625 0 L 8.03125 0 L 2.21875 -7.9375 L 2.21875 0 L 1.15625 0 L 1.15625 -9.40625 L 2.390625 -9.40625 L 8.1875 -1.484375 L 8.1875 -9.40625 Z M 9.265625 -9.40625 "/></g></g></g><g fill="#6e07f3" fill-opacity="1"><g transform="translate(238.22007, 260.285285)"><g><path d="M 2.21875 -7.953125 C 2.039062 -7.796875 1.921875 -7.625 1.859375 -7.4375 C 1.804688 -7.25 1.78125 -7.046875 1.78125 -6.828125 C 1.78125 -6.617188 1.867188 -6.425781 2.046875 -6.25 C 2.234375 -6.070312 2.476562 -5.921875 2.78125 -5.796875 C 3.082031 -5.671875 3.425781 -5.5625 3.8125 -5.46875 C 4.207031 -5.375 4.601562 -5.273438 5 -5.171875 C 5.40625 -5.078125 5.800781 -4.960938 6.1875 -4.828125 C 6.582031 -4.703125 6.929688 -4.539062 7.234375 -4.34375 C 7.898438 -3.914062 8.234375 -3.332031 8.234375 -2.59375 C 8.234375 -1.71875 7.90625 -1.046875 7.25 -0.578125 C 6.59375 -0.117188 5.679688 0.109375 4.515625 0.109375 C 3.203125 0.109375 2.195312 -0.160156 1.5 -0.703125 C 0.882812 -1.203125 0.535156 -1.90625 0.453125 -2.8125 L 1.5625 -2.8125 C 1.601562 -2.164062 1.914062 -1.671875 2.5 -1.328125 C 3.007812 -1.035156 3.6875 -0.890625 4.53125 -0.890625 C 6.289062 -0.890625 7.171875 -1.445312 7.171875 -2.5625 C 7.171875 -2.9375 7.007812 -3.234375 6.6875 -3.453125 C 6.375 -3.671875 5.976562 -3.847656 5.5 -3.984375 C 5.019531 -4.128906 4.503906 -4.265625 3.953125 -4.390625 C 3.398438 -4.515625 2.882812 -4.671875 2.40625 -4.859375 C 1.925781 -5.054688 1.523438 -5.3125 1.203125 -5.625 C 0.890625 -5.945312 0.734375 -6.378906 0.734375 -6.921875 C 0.734375 -7.679688 1.023438 -8.300781 1.609375 -8.78125 C 2.203125 -9.269531 3.09375 -9.515625 4.28125 -9.515625 C 5.46875 -9.515625 6.390625 -9.238281 7.046875 -8.6875 C 7.640625 -8.207031 7.957031 -7.585938 8 -6.828125 L 6.90625 -6.828125 C 6.8125 -7.609375 6.304688 -8.125 5.390625 -8.375 C 5.078125 -8.46875 4.679688 -8.515625 4.203125 -8.515625 C 3.722656 -8.515625 3.316406 -8.457031 2.984375 -8.34375 C 2.660156 -8.238281 2.40625 -8.109375 2.21875 -7.953125 Z M 2.21875 -7.953125 "/></g></g></g><g clip-path="url(#870767829a)"><path fill="#6e07f3" d="M 178.105469 146.714844 L 182.796875 149.921875 C 183.039062 149.480469 183.507812 149.183594 184.042969 149.183594 L 191.199219 149.183594 C 191.980469 149.183594 192.617188 149.820312 192.617188 150.601562 L 192.617188 157.761719 C 192.617188 158.539062 191.980469 159.175781 191.199219 159.175781 L 187.730469 159.175781 L 184.71875 165.117188 L 185.320312 165.117188 C 186.324219 165.117188 187.144531 165.9375 187.144531 166.941406 L 187.144531 170.921875 L 197.253906 171.085938 L 197.253906 170.835938 C 197.253906 170.246094 197.738281 169.757812 198.332031 169.757812 L 203.789062 169.757812 C 204.382812 169.757812 204.867188 170.242188 204.867188 170.835938 L 204.867188 176.292969 C 204.867188 176.886719 204.382812 177.375 203.789062 177.375 L 198.332031 177.375 C 197.738281 177.375 197.253906 176.886719 197.253906 176.292969 L 197.253906 173.773438 L 187.144531 173.609375 L 187.144531 176.148438 C 187.144531 177.152344 186.324219 177.96875 185.320312 177.96875 L 176.113281 177.96875 C 175.113281 177.96875 174.292969 177.152344 174.292969 176.148438 L 174.292969 166.941406 C 174.292969 165.9375 175.113281 165.121094 176.113281 165.121094 L 181.699219 165.121094 L 184.714844 159.179688 L 184.042969 159.179688 C 183.261719 159.179688 182.625 158.542969 182.625 157.761719 L 182.625 153.0625 L 177.832031 149.789062 C 177.445312 150.492188 176.699219 150.972656 175.847656 150.972656 L 164.429688 150.972656 C 163.183594 150.972656 162.167969 149.953125 162.167969 148.710938 L 162.167969 137.292969 C 162.167969 136.046875 163.183594 135.03125 164.429688 135.03125 L 175.847656 135.03125 C 177.089844 135.03125 178.105469 136.046875 178.105469 137.292969 Z M 153.0625 132.648438 L 146.820312 140.519531 L 146.820312 148.277344 C 146.820312 148.65625 146.6875 149.003906 146.46875 149.28125 L 150.964844 154.65625 L 158.832031 154.65625 C 160.078125 154.65625 161.09375 155.671875 161.09375 156.917969 L 161.09375 168.335938 C 161.09375 169.578125 160.074219 170.597656 158.832031 170.597656 L 147.414062 170.597656 C 146.167969 170.597656 145.152344 169.578125 145.152344 168.335938 L 145.152344 156.917969 C 145.152344 155.671875 146.171875 154.65625 147.414062 154.65625 L 147.453125 154.65625 L 143.46875 149.898438 L 137.015625 149.898438 C 136.128906 149.898438 135.398438 149.167969 135.398438 148.28125 L 135.398438 140.097656 C 135.398438 139.207031 136.128906 138.480469 137.015625 138.480469 L 145 138.480469 L 149.683594 132.574219 C 148.722656 132.316406 148.007812 131.433594 148.007812 130.390625 L 148.007812 118.96875 C 148.007812 117.726562 149.023438 116.707031 150.265625 116.707031 L 161.683594 116.707031 C 162.929688 116.707031 163.945312 117.726562 163.945312 118.96875 L 163.945312 130.386719 C 163.945312 131.632812 162.929688 132.648438 161.683594 132.648438 Z M 209.171875 188.914062 L 216.175781 181.175781 L 216.175781 167.960938 C 216.175781 167.257812 216.453125 166.621094 216.910156 166.15625 L 213.222656 161.878906 C 213.097656 161.902344 212.96875 161.910156 212.839844 161.910156 L 201.417969 161.910156 C 200.171875 161.910156 199.160156 160.894531 199.160156 159.648438 L 199.160156 148.230469 C 199.160156 146.984375 200.175781 145.972656 201.417969 145.972656 L 212.839844 145.972656 C 214.082031 145.972656 215.097656 146.988281 215.097656 148.230469 L 215.097656 159.648438 C 215.097656 159.742188 215.09375 159.832031 215.082031 159.921875 L 219.773438 165.363281 L 231.886719 165.363281 C 233.316406 165.363281 234.484375 166.53125 234.484375 167.960938 L 234.484375 181.082031 C 234.484375 182.507812 233.316406 183.675781 231.886719 183.675781 L 218.765625 183.675781 C 218.398438 183.675781 218.046875 183.597656 217.730469 183.457031 L 211.289062 190.578125 L 211.289062 198.308594 C 211.289062 199.160156 210.589844 199.859375 209.738281 199.859375 L 201.898438 199.859375 C 201.042969 199.859375 200.347656 199.160156 200.347656 198.308594 L 200.347656 190.464844 C 200.347656 189.613281 201.046875 188.914062 201.898438 188.914062 Z M 230.824219 144.425781 L 226.5625 136.210938 L 220.914062 136.210938 C 220.003906 136.210938 219.261719 135.46875 219.261719 134.558594 L 219.261719 126.210938 C 219.261719 125.304688 220.003906 124.5625 220.914062 124.5625 L 229.261719 124.5625 C 230.171875 124.5625 230.914062 125.304688 230.914062 126.210938 L 230.914062 134.558594 C 230.914062 135.359375 230.335938 136.03125 229.578125 136.183594 L 233.851562 144.425781 L 237.945312 144.425781 C 238.855469 144.425781 239.597656 145.167969 239.597656 146.078125 L 239.597656 154.425781 C 239.597656 155.332031 238.855469 156.074219 237.945312 156.074219 L 229.597656 156.074219 C 228.691406 156.074219 227.949219 155.332031 227.949219 154.425781 L 227.949219 146.078125 C 227.949219 145.167969 228.691406 144.425781 229.597656 144.425781 Z M 177.867188 107.667969 L 189.285156 107.667969 C 190.53125 107.667969 191.542969 108.683594 191.542969 109.925781 L 191.542969 121.347656 C 191.542969 122.59375 190.527344 123.605469 189.285156 123.605469 L 187.15625 123.605469 L 189.527344 129.441406 L 195.480469 129.441406 C 195.589844 129.441406 195.691406 129.449219 195.792969 129.46875 L 199.386719 126.433594 C 198.953125 126.023438 198.679688 125.441406 198.679688 124.796875 L 198.679688 113.378906 C 198.679688 112.132812 199.699219 111.117188 200.941406 111.117188 L 212.359375 111.117188 C 213.605469 111.117188 214.621094 112.132812 214.621094 113.378906 L 214.621094 124.796875 C 214.621094 126.042969 213.605469 127.054688 212.359375 127.054688 L 202.820312 127.054688 L 197.128906 131.859375 L 197.128906 139.4375 C 197.128906 140.347656 196.386719 141.089844 195.480469 141.089844 L 187.132812 141.089844 C 186.222656 141.089844 185.480469 140.347656 185.480469 139.4375 L 185.480469 131.089844 C 185.480469 130.347656 185.972656 129.71875 186.648438 129.511719 L 184.242188 123.605469 L 177.863281 123.605469 C 176.621094 123.605469 175.601562 122.589844 175.601562 121.347656 L 175.601562 109.925781 C 175.605469 108.683594 176.625 107.667969 177.867188 107.667969 Z M 177.867188 107.667969 " fill-opacity="1" fill-rule="evenodd"/></g></svg>