<svg xmlns="http://www.w3.org/2000/svg" xmlns:xlink="http://www.w3.org/1999/xlink" width="500" zoomAndPan="magnify" viewBox="0 0 375 374.999991" height="500" preserveAspectRatio="xMidYMid meet" version="1.0"><defs><clipPath id="cb72967eee"><path d="M 112.5 112.5 L 262.5 112.5 L 262.5 262.5 L 112.5 262.5 Z M 112.5 112.5 " clip-rule="nonzero"/></clipPath></defs><g clip-path="url(#cb72967eee)"><path fill="#cc0f35" d="M 187.609375 262.5 C 146.167969 262.5 112.5 228.832031 112.5 187.390625 C 112.5 145.953125 146.167969 112.285156 187.609375 112.285156 C 229.046875 112.285156 262.714844 145.953125 262.714844 187.390625 C 262.714844 228.832031 229.046875 262.5 187.609375 262.5 Z M 187.609375 121.242188 C 151.242188 121.242188 121.566406 150.917969 121.566406 187.285156 C 121.566406 223.757812 151.242188 253.328125 187.609375 253.328125 C 223.976562 253.328125 253.652344 223.652344 253.652344 187.285156 C 253.757812 150.917969 224.082031 121.242188 187.609375 121.242188 Z M 187.609375 121.242188 " fill-opacity="1" fill-rule="nonzero"/></g><path fill="#cc0f35" d="M 197.320312 158.902344 L 204.226562 158.902344 L 204.226562 216.960938 L 197.320312 216.960938 Z M 197.320312 158.902344 " fill-opacity="1" fill-rule="nonzero"/><path fill="#cc0f35" d="M 170.988281 158.902344 L 177.894531 158.902344 L 177.894531 216.960938 L 170.988281 216.960938 Z M 170.988281 158.902344 " fill-opacity="1" fill-rule="nonzero"/></svg>